<svg width="158" height="39" viewBox="0 0 158 39" fill="none" xmlns="http://www.w3.org/2000/svg">
<path d="M0 0C12.7564 0 25.5128 0 38.6557 0C38.6557 12.6208 38.6557 25.2417 38.6557 38.2449C25.8993 38.2449 13.1429 38.2449 0 38.2449C0 25.6241 0 13.0033 0 0ZM1.1866 1.1866C1.1866 1.6836 1.1866 2.1806 1.1866 2.69266C6.90965 2.69266 12.6327 2.69266 18.5292 2.69266C18.5292 2.19566 18.5292 1.69866 18.5292 1.1866C12.8061 1.1866 7.08307 1.1866 1.1866 1.1866ZM19.8983 1.1866C19.8983 6.87953 19.8983 12.5725 19.8983 18.4379C20.3953 18.4379 20.8923 18.4379 21.4044 18.4379C21.4044 12.745 21.4044 7.05204 21.4044 1.1866C20.9074 1.1866 20.4104 1.1866 19.8983 1.1866ZM22.5454 1.1866C22.5454 6.87953 22.5454 12.5725 22.5454 18.4379C23.0574 18.4379 23.5695 18.4379 24.0971 18.4379C24.0971 12.745 24.0971 7.05204 24.0971 1.1866C23.585 1.1866 23.0729 1.1866 22.5454 1.1866ZM25.238 1.1866C25.238 6.87953 25.238 12.5725 25.238 18.4379C25.7501 18.4379 26.2621 18.4379 26.7897 18.4379C26.7897 12.745 26.7897 7.05204 26.7897 1.1866C26.2777 1.1866 25.7656 1.1866 25.238 1.1866ZM27.9307 1.1866C27.9307 6.87953 27.9307 12.5725 27.9307 18.4379C28.4277 18.4379 28.9247 18.4379 29.4367 18.4379C29.4367 12.745 29.4367 7.05204 29.4367 1.1866C28.9397 1.1866 28.4427 1.1866 27.9307 1.1866ZM30.6233 1.1866C30.6233 6.87953 30.6233 12.5725 30.6233 18.4379C31.1203 18.4379 31.6173 18.4379 32.1294 18.4379C32.1294 12.745 32.1294 7.05204 32.1294 1.1866C31.6324 1.1866 31.1354 1.1866 30.6233 1.1866ZM33.2704 1.1866C33.2704 6.87953 33.2704 12.5725 33.2704 18.4379C33.7824 18.4379 34.2945 18.4379 34.8221 18.4379C34.8221 12.745 34.8221 7.05204 34.8221 1.1866C34.31 1.1866 33.7979 1.1866 33.2704 1.1866ZM35.963 1.1866C35.963 6.87953 35.963 12.5725 35.963 18.4379C36.4751 18.4379 36.9872 18.4379 37.5147 18.4379C37.5147 12.745 37.5147 7.05204 37.5147 1.1866C37.0027 1.1866 36.4906 1.1866 35.963 1.1866ZM1.1866 3.78798C1.1866 4.30005 1.1866 4.81211 1.1866 5.33969C6.90965 5.33969 12.6327 5.33969 18.5292 5.33969C18.5292 4.82763 18.5292 4.31556 18.5292 3.78798C12.8061 3.78798 7.08307 3.78798 1.1866 3.78798ZM1.1866 6.38937C1.1866 6.90143 1.1866 7.4135 1.1866 7.94107C6.90965 7.94107 12.6327 7.94107 18.5292 7.94107C18.5292 7.42901 18.5292 6.91695 18.5292 6.38937C12.8061 6.38937 7.08307 6.38937 1.1866 6.38937ZM1.1866 9.0364C1.1866 9.5334 1.1866 10.0304 1.1866 10.5425C6.90965 10.5425 12.6327 10.5425 18.5292 10.5425C18.5292 10.0455 18.5292 9.54846 18.5292 9.0364C12.8061 9.0364 7.08307 9.0364 1.1866 9.0364ZM1.1866 11.6378C1.1866 12.1348 1.1866 12.6318 1.1866 13.1438C6.90965 13.1438 12.6327 13.1438 18.5292 13.1438C18.5292 12.6468 18.5292 12.1498 18.5292 11.6378C12.8061 11.6378 7.08307 11.6378 1.1866 11.6378ZM1.1866 14.2392C1.1866 14.7512 1.1866 15.2633 1.1866 15.7909C6.90965 15.7909 12.6327 15.7909 18.5292 15.7909C18.5292 15.2788 18.5292 14.7667 18.5292 14.2392C12.8061 14.2392 7.08307 14.2392 1.1866 14.2392ZM1.1866 16.8406C1.1866 17.3526 1.1866 17.8647 1.1866 18.3923C6.90965 18.3923 12.6327 18.3923 18.5292 18.3923C18.5292 17.8802 18.5292 17.3681 18.5292 16.8406C12.8061 16.8406 7.08307 16.8406 1.1866 16.8406ZM19.8983 19.6701C19.8983 20.1822 19.8983 20.6943 19.8983 21.2218C25.7117 21.2218 31.5252 21.2218 37.5147 21.2218C37.5147 20.7098 37.5147 20.1977 37.5147 19.6701C31.7013 19.6701 25.8879 19.6701 19.8983 19.6701ZM1.32351 19.7614C1.32351 25.4543 1.32351 31.1473 1.32351 37.0127C1.82051 37.0127 2.31752 37.0127 2.82958 37.0127C2.82958 31.3198 2.82958 25.6269 2.82958 19.7614C2.33258 19.7614 1.83557 19.7614 1.32351 19.7614ZM3.9249 19.7614C3.9249 25.4543 3.9249 31.1473 3.9249 37.0127C4.4219 37.0127 4.9189 37.0127 5.43097 37.0127C5.43097 31.3198 5.43097 25.6269 5.43097 19.7614C4.93396 19.7614 4.43696 19.7614 3.9249 19.7614ZM6.52629 19.7614C6.52629 25.4543 6.52629 31.1473 6.52629 37.0127C7.03835 37.0127 7.55041 37.0127 8.07799 37.0127C8.07799 31.3198 8.07799 25.6269 8.07799 19.7614C7.56593 19.7614 7.05387 19.7614 6.52629 19.7614ZM9.12767 19.7614C9.12767 25.4543 9.12767 31.1473 9.12767 37.0127C9.63974 37.0127 10.1518 37.0127 10.6794 37.0127C10.6794 31.3198 10.6794 25.6269 10.6794 19.7614C10.1673 19.7614 9.65525 19.7614 9.12767 19.7614ZM11.7747 19.7614C11.7747 25.4543 11.7747 31.1473 11.7747 37.0127C12.2717 37.0127 12.7687 37.0127 13.2808 37.0127C13.2808 31.3198 13.2808 25.6269 13.2808 19.7614C12.7838 19.7614 12.2868 19.7614 11.7747 19.7614ZM14.3761 19.7614C14.3761 25.4543 14.3761 31.1473 14.3761 37.0127C14.8731 37.0127 15.3701 37.0127 15.8822 37.0127C15.8822 31.3198 15.8822 25.6269 15.8822 19.7614C15.3851 19.7614 14.8881 19.7614 14.3761 19.7614ZM16.9775 19.7614C16.9775 25.4543 16.9775 31.1473 16.9775 37.0127C17.4895 37.0127 18.0016 37.0127 18.5292 37.0127C18.5292 31.3198 18.5292 25.6269 18.5292 19.7614C18.0171 19.7614 17.5051 19.7614 16.9775 19.7614ZM19.8983 22.3172C19.8983 22.8142 19.8983 23.3112 19.8983 23.8232C25.7117 23.8232 31.5252 23.8232 37.5147 23.8232C37.5147 23.3262 37.5147 22.8292 37.5147 22.3172C31.7013 22.3172 25.8879 22.3172 19.8983 22.3172ZM19.8983 24.9185C19.8983 25.4155 19.8983 25.9125 19.8983 26.4246C25.7117 26.4246 31.5252 26.4246 37.5147 26.4246C37.5147 25.9276 37.5147 25.4306 37.5147 24.9185C31.7013 24.9185 25.8879 24.9185 19.8983 24.9185ZM19.8983 27.5199C19.8983 28.032 19.8983 28.5441 19.8983 29.0716C25.7117 29.0716 31.5252 29.0716 37.5147 29.0716C37.5147 28.5596 37.5147 28.0475 37.5147 27.5199C31.7013 27.5199 25.8879 27.5199 19.8983 27.5199ZM19.8983 30.1213C19.8983 30.6334 19.8983 31.1454 19.8983 31.673C25.7117 31.673 31.5252 31.673 37.5147 31.673C37.5147 31.161 37.5147 30.6489 37.5147 30.1213C31.7013 30.1213 25.8879 30.1213 19.8983 30.1213ZM19.8983 32.7683C19.8983 33.2653 19.8983 33.7623 19.8983 34.2744C25.7117 34.2744 31.5252 34.2744 37.5147 34.2744C37.5147 33.7774 37.5147 33.2804 37.5147 32.7683C31.7013 32.7683 25.8879 32.7683 19.8983 32.7683ZM19.8983 35.3697C19.8983 35.8667 19.8983 36.3637 19.8983 36.8758C25.7117 36.8758 31.5252 36.8758 37.5147 36.8758C37.5147 36.3788 37.5147 35.8818 37.5147 35.3697C31.7013 35.3697 25.8879 35.3697 19.8983 35.3697Z" fill="black"/>
<path d="M119.892 26.5159C126.483 26.5159 126.483 26.5159 127.624 27.6271C128.246 28.283 128.459 29.0521 128.44 29.935C128.403 30.7594 128.01 31.4369 127.422 31.9925C127.048 32.3178 126.502 32.6025 126.008 32.6771C126.28 33.1316 126.561 33.5803 126.852 34.0234C127.08 34.3709 127.302 34.721 127.517 35.0769C127.674 35.3346 127.836 35.588 128 35.8406C129.202 37.6871 129.202 37.6871 129.202 37.7886C128.929 37.7999 128.655 37.8081 128.381 37.8136C128.288 37.8159 128.195 37.819 128.102 37.823C127.333 37.8549 127.333 37.8549 127.115 37.7001C127.03 37.5809 126.975 37.4672 126.92 37.3322C126.877 37.2602 126.834 37.189 126.789 37.1184C126.746 37.0462 126.703 36.9739 126.661 36.9015C126.437 36.5241 126.206 36.1521 125.97 35.7817C125.809 35.5282 125.65 35.2736 125.491 35.0189C125.463 34.9734 125.434 34.928 125.405 34.8811C125.254 34.6386 125.102 34.396 124.951 34.1533C124.92 34.1039 124.889 34.0544 124.858 34.0035C124.798 33.9088 124.739 33.8142 124.68 33.7195C124.517 33.4569 124.517 33.4569 124.345 33.1994C124.273 33.0878 124.273 33.0878 124.273 32.9965C123.385 32.9965 122.496 32.9965 121.581 32.9965C121.581 34.5779 121.581 36.1593 121.581 37.7886C121.023 37.7886 120.466 37.7886 119.892 37.7886C119.892 34.0686 119.892 30.3486 119.892 26.5159ZM121.581 27.885C121.581 29.12 121.581 30.355 121.581 31.6274C122.284 31.6302 122.284 31.6302 123.001 31.6331C123.148 31.6339 123.294 31.6347 123.446 31.6356C123.564 31.6359 123.682 31.6361 123.8 31.6363C123.89 31.637 123.89 31.637 123.981 31.6377C124.825 31.6379 125.673 31.5222 126.318 30.9314C126.698 30.529 126.759 30.0722 126.75 29.5437C126.733 29.1389 126.572 28.7632 126.281 28.4783C125.581 27.9245 124.732 27.8694 123.871 27.8761C123.784 27.8763 123.784 27.8763 123.694 27.8764C123.478 27.8769 123.262 27.8781 123.047 27.8793C122.321 27.8821 122.321 27.8821 121.581 27.885Z" fill="black"/>
<path d="M148.644 26.5159C149.201 26.5159 149.759 26.5159 150.333 26.5159C150.333 28.0671 150.333 29.6184 150.333 31.2166C152.306 31.2166 154.279 31.2166 156.311 31.2166C156.311 29.6654 156.311 28.1141 156.311 26.5159C156.869 26.5159 157.426 26.5159 158 26.5159C158 30.2359 158 33.9558 158 37.7886C157.443 37.7886 156.886 37.7886 156.311 37.7886C156.311 36.0716 156.311 34.3547 156.311 32.5858C154.338 32.5858 152.366 32.5858 150.333 32.5858C150.333 34.3027 150.333 36.0196 150.333 37.7886C149.776 37.7886 149.218 37.7886 148.644 37.7886C148.644 34.0686 148.644 30.3486 148.644 26.5159Z" fill="black"/>
<path d="M45.5471 26.5159C46.1043 26.5159 46.6616 26.5159 47.2357 26.5159C47.2357 28.0671 47.2357 29.6184 47.2357 31.2166C49.2237 31.2166 51.2117 31.2166 53.26 31.2166C53.26 29.6654 53.26 28.1141 53.26 26.5159C53.8022 26.5159 54.3443 26.5159 54.903 26.5159C54.903 30.2359 54.903 33.9558 54.903 37.7886C54.3608 37.7886 53.8186 37.7886 53.26 37.7886C53.26 36.0716 53.26 34.3547 53.26 32.5858C51.272 32.5858 49.284 32.5858 47.2357 32.5858C47.2357 34.3027 47.2357 36.0196 47.2357 37.7886C46.6785 37.7886 46.1212 37.7886 45.5471 37.7886C45.5471 34.0686 45.5471 30.3486 45.5471 26.5159Z" fill="black"/>
<path d="M108.473 26.5107C108.55 26.5107 108.627 26.5109 108.704 26.5114C108.764 26.5115 108.764 26.5115 108.826 26.5116C108.956 26.5119 109.086 26.5124 109.215 26.513C109.303 26.5132 109.391 26.5134 109.479 26.5136C109.694 26.5141 109.91 26.5149 110.125 26.5159C110.412 27.0523 110.639 27.6162 110.876 28.176C110.922 28.2858 110.969 28.3957 111.015 28.5056C111.1 28.7048 111.184 28.9041 111.269 29.1034C111.502 29.6541 111.736 30.2043 111.971 30.7545C111.992 30.8051 112.014 30.8556 112.036 30.9077C112.371 31.6938 112.707 32.4794 113.043 33.2646C113.066 33.3169 113.088 33.3691 113.111 33.4229C113.335 33.9444 113.558 34.4657 113.782 34.9869C113.883 35.2211 113.983 35.4552 114.084 35.6894C114.144 35.8284 114.203 35.9674 114.263 36.1064C114.329 36.2602 114.395 36.414 114.461 36.5679C114.48 36.6121 114.499 36.6564 114.519 36.702C114.673 37.062 114.817 37.4245 114.963 37.7885C114.376 37.7885 113.788 37.7885 113.183 37.7885C112.826 36.9971 112.475 36.2037 112.135 35.4048C112.121 35.372 112.107 35.3393 112.092 35.3056C112.067 35.2451 112.041 35.1845 112.015 35.1239C111.92 34.9004 111.821 34.679 111.723 34.4569C110.021 34.4419 108.319 34.4268 106.566 34.4113C106.52 34.5619 106.475 34.7125 106.429 34.8677C106.378 34.997 106.327 35.1242 106.272 35.2515C106.257 35.2863 106.242 35.3211 106.227 35.357C106.195 35.4308 106.164 35.5046 106.132 35.5783C106.05 35.7708 105.968 35.9635 105.886 36.1563C105.87 36.1944 105.854 36.2325 105.837 36.2717C105.676 36.6526 105.522 37.0362 105.371 37.4212C105.355 37.4637 105.338 37.5061 105.321 37.5498C105.306 37.5864 105.292 37.6229 105.278 37.6605C105.242 37.7429 105.242 37.7429 105.196 37.7885C105.068 37.7926 104.941 37.7938 104.813 37.793C104.774 37.7929 104.736 37.7929 104.696 37.7928C104.573 37.7925 104.45 37.792 104.326 37.7914C104.243 37.7912 104.16 37.791 104.076 37.7908C103.872 37.7903 103.667 37.7895 103.462 37.7885C103.557 37.4829 103.675 37.1913 103.804 36.8984C103.824 36.8523 103.844 36.8062 103.864 36.7587C103.908 36.6589 103.952 36.5591 103.995 36.4594C104.102 36.2156 104.208 35.9716 104.315 35.7275C104.339 35.6708 104.364 35.6141 104.389 35.5574C104.659 34.9358 104.927 34.3129 105.194 33.6896C105.216 33.6369 105.239 33.5841 105.262 33.5298C105.377 33.2615 105.492 32.9932 105.606 32.7249C105.812 32.2446 106.018 31.7645 106.224 31.2844C106.337 31.0208 106.45 30.7572 106.563 30.4935C106.585 30.4412 106.607 30.3889 106.631 30.3349C106.775 29.9971 106.92 29.6593 107.065 29.3215C107.152 29.1173 107.24 28.913 107.327 28.7088C107.386 28.5701 107.446 28.4314 107.505 28.2927C107.925 27.3113 107.925 27.3113 108.123 26.8567C108.136 26.8267 108.149 26.7967 108.162 26.7658C108.271 26.5167 108.271 26.5167 108.473 26.5107ZM109.121 28.1588C108.988 28.4181 108.871 28.6794 108.763 28.9502C108.739 29.0118 108.739 29.0118 108.713 29.0747C108.659 29.2096 108.605 29.3445 108.551 29.4795C108.474 29.6717 108.396 29.8639 108.319 30.056C108.299 30.1057 108.279 30.1553 108.258 30.2064C108.111 30.573 107.962 30.939 107.812 31.3047C107.79 31.3561 107.769 31.4076 107.748 31.4606C107.665 31.6621 107.582 31.8636 107.5 32.0649C107.442 32.2041 107.385 32.3433 107.328 32.4825C107.311 32.5242 107.294 32.5658 107.276 32.6087C107.26 32.6466 107.245 32.6846 107.229 32.7236C107.215 32.7567 107.202 32.7897 107.188 32.8238C107.154 32.9052 107.154 32.9052 107.159 32.9965C108.484 32.9965 109.81 32.9965 111.175 32.9965C111.061 32.6523 111.061 32.6523 110.933 32.3146C110.913 32.2652 110.893 32.2158 110.873 32.1649C110.852 32.1125 110.831 32.06 110.809 32.006C110.787 31.9503 110.765 31.8946 110.742 31.8372C110.682 31.6877 110.622 31.5382 110.562 31.3888C110.512 31.2654 110.463 31.1419 110.413 31.0185C110.031 30.0642 109.646 29.1109 109.258 28.1588C109.213 28.1588 109.168 28.1588 109.121 28.1588Z" fill="black"/>
<path d="M92.7772 26.5107C92.8561 26.5107 92.9351 26.5109 93.014 26.5114C93.0555 26.5115 93.097 26.5115 93.1397 26.5116C93.2727 26.5119 93.4057 26.5124 93.5387 26.513C93.6286 26.5132 93.7186 26.5134 93.8085 26.5136C94.0295 26.5141 94.2504 26.5149 94.4714 26.5159C94.5022 26.5891 94.5022 26.5891 94.5336 26.6638C95.1143 28.0442 95.7023 29.4213 96.2931 30.7974C96.5237 31.3345 96.7541 31.8717 96.9844 32.4089C97.0069 32.4614 97.0294 32.5139 97.0526 32.568C97.4401 33.472 97.8259 34.3767 98.2109 35.2817C98.4056 35.7392 98.6004 36.1965 98.7967 36.6533C98.8132 36.6918 98.8298 36.7302 98.8468 36.7699C98.9222 36.9455 98.9978 37.121 99.0735 37.2965C99.0992 37.3562 99.1249 37.4159 99.1506 37.4757C99.1726 37.5267 99.1946 37.5777 99.2173 37.6302C99.2634 37.7429 99.2634 37.7429 99.2634 37.7885C98.6761 37.7885 98.0887 37.7885 97.4835 37.7885C97.1672 37.0828 96.8555 36.3753 96.5497 35.6649C96.5124 35.5785 96.4751 35.4921 96.4378 35.4058C96.3847 35.2832 96.332 35.1605 96.2793 35.0378C96.2633 35.0009 96.2473 34.9641 96.2308 34.9261C96.2161 34.8917 96.2014 34.8573 96.1863 34.8218C96.1735 34.792 96.1606 34.7621 96.1474 34.7314C96.1144 34.6395 96.1144 34.6395 96.0688 34.4113C94.3518 34.4113 92.6349 34.4113 90.866 34.4113C90.8208 34.5619 90.7756 34.7125 90.7291 34.8677C90.6747 35.0084 90.6191 35.1474 90.5604 35.2863C90.5445 35.3245 90.5285 35.3627 90.5121 35.4021C90.461 35.5245 90.4097 35.6468 90.3583 35.769C90.3056 35.8951 90.2529 36.0211 90.2003 36.1471C90.1658 36.2298 90.1312 36.3125 90.0966 36.3952C89.9462 36.7547 89.7986 37.1153 89.6532 37.4769C89.5473 37.7381 89.5473 37.7381 89.4968 37.7885C89.3685 37.7926 89.2413 37.7938 89.113 37.793C89.0746 37.7929 89.0361 37.7929 88.9966 37.7928C88.8733 37.7925 88.7501 37.792 88.6268 37.7914C88.5435 37.7912 88.4602 37.791 88.3768 37.7908C88.1721 37.7903 87.9673 37.7895 87.7626 37.7885C87.979 37.1959 88.2348 36.6193 88.4842 36.04C88.5331 35.9264 88.5819 35.8127 88.6308 35.699C88.7066 35.5225 88.7824 35.3461 88.8583 35.1696C89.0276 34.7759 89.1964 34.3821 89.3649 33.9881C89.8315 32.8974 90.3004 31.8079 90.7737 30.7202C91.2081 29.7213 91.6354 28.7194 92.0613 27.7169C92.0998 27.6263 92.1383 27.5357 92.1769 27.4451C92.2412 27.2936 92.3054 27.1421 92.3695 26.9906C92.3946 26.9316 92.4196 26.8727 92.4446 26.8138C92.4652 26.7651 92.4858 26.7164 92.507 26.6663C92.575 26.5166 92.575 26.5166 92.7772 26.5107ZM93.4217 28.1588C93.1825 28.6509 92.9825 29.1571 92.7813 29.6655C92.426 30.5633 92.063 31.4575 91.6888 32.3476C91.6733 32.3849 91.6577 32.4221 91.6416 32.4605C91.6126 32.5297 91.5835 32.5988 91.5543 32.6679C91.4834 32.8267 91.4834 32.8267 91.4593 32.9965C92.7846 32.9965 94.11 32.9965 95.4755 32.9965C95.3855 32.6967 95.2942 32.415 95.1743 32.1285C95.1506 32.0709 95.1506 32.0709 95.1264 32.0122C95.0923 31.9296 95.0582 31.8471 95.024 31.7646C94.9319 31.5427 94.8405 31.3205 94.7492 31.0982C94.7302 31.0522 94.7113 31.0061 94.6917 30.9587C94.4427 30.3526 94.2005 29.7436 93.9581 29.1348C93.9414 29.0932 93.9248 29.0515 93.9077 29.0085C93.8769 28.9311 93.8461 28.8538 93.8153 28.7763C93.7328 28.5691 93.6474 28.3635 93.5586 28.1588C93.5135 28.1588 93.4683 28.1588 93.4217 28.1588Z" fill="black"/>
<path d="M60.6078 26.5159C63.0024 26.5159 65.397 26.5159 67.8643 26.5159C67.8643 26.9828 67.8643 27.4496 67.8643 27.9307C66.0269 27.9307 64.1895 27.9307 62.2964 27.9307C62.2964 29.0301 62.2964 30.1295 62.2964 31.2623C63.953 31.2623 65.6097 31.2623 67.3166 31.2623C67.3166 31.7141 67.3166 32.1659 67.3166 32.6314C65.6599 32.6314 64.0033 32.6314 62.2964 32.6314C62.2964 33.8815 62.2964 35.1315 62.2964 36.4194C64.2241 36.4194 66.1519 36.4194 68.1381 36.4194C68.1381 36.8712 68.1381 37.323 68.1381 37.7886C65.6531 37.7886 63.1681 37.7886 60.6078 37.7886C60.6078 34.0686 60.6078 30.3486 60.6078 26.5159Z" fill="black"/>
<path d="M72.9757 26.5159C73.2525 26.4977 73.5289 26.4845 73.8061 26.4758C73.9001 26.4721 73.9941 26.4671 74.088 26.4608C74.8429 26.411 74.8429 26.411 75.072 26.5814C75.2292 26.7512 75.335 26.9465 75.4376 27.1526C75.5056 27.2843 75.59 27.4016 75.677 27.5213C75.7057 27.5626 75.7344 27.6038 75.7641 27.6463C75.7927 27.6874 75.8214 27.7286 75.851 27.7709C76.0768 28.0952 76.3019 28.42 76.5254 28.7459C76.7412 29.0604 76.9594 29.3732 77.1775 29.6862C77.387 29.9869 77.5952 30.2883 77.8009 30.5916C77.876 30.7015 77.9473 30.8028 78.0416 30.8972C78.0743 30.8507 78.1069 30.8042 78.1405 30.7563C78.3857 30.4079 78.6325 30.0609 78.8831 29.7163C79.0886 29.4333 79.2885 29.1471 79.4849 28.8577C79.6792 28.5716 79.8779 28.29 80.0841 28.0124C80.3435 27.6617 80.5914 27.3028 80.8402 26.9445C80.8655 26.9085 80.8908 26.8725 80.9168 26.8353C80.9387 26.7943 80.9387 26.7943 80.9611 26.7525C81.0369 26.6226 81.0906 26.5319 81.2393 26.4881C81.3563 26.4789 81.4693 26.4799 81.5866 26.4847C81.6499 26.4854 81.6499 26.4854 81.7145 26.486C81.849 26.4878 81.9833 26.4918 82.1177 26.4959C82.209 26.4975 82.3003 26.499 82.3916 26.5003C82.6151 26.5038 82.8384 26.5093 83.0618 26.5159C82.9451 26.7232 82.8278 26.9106 82.6796 27.0978C82.487 27.3438 82.2998 27.5933 82.1148 27.8451C82.0878 27.8819 82.0608 27.9187 82.0329 27.9566C81.9775 28.032 81.9221 28.1075 81.8668 28.183C81.7329 28.3653 81.5987 28.5473 81.4645 28.7293C81.4113 28.8015 81.3581 28.8737 81.3049 28.9459C81.1979 29.0911 81.0909 29.2362 80.9837 29.3813C80.7218 29.7359 80.4612 30.0914 80.2037 30.4493C79.9656 30.7803 79.7229 31.1075 79.4774 31.4331C79.4579 31.4592 79.4385 31.4854 79.4184 31.5123C79.3742 31.5699 79.3267 31.6249 79.2785 31.6791C79.2172 31.7635 79.2172 31.7635 79.2401 31.8721C79.2758 31.9994 79.3195 32.0738 79.3988 32.1788C79.4247 32.2134 79.4505 32.248 79.4772 32.2837C79.5051 32.3203 79.5331 32.3569 79.5619 32.3947C79.5908 32.4331 79.6196 32.4716 79.6494 32.5112C79.7368 32.6276 79.8248 32.7436 79.9128 32.8596C79.9823 32.9521 80.0517 33.0446 80.121 33.1372C80.1651 33.196 80.2092 33.2548 80.2534 33.3135C80.5659 33.7293 80.873 34.1491 81.1811 34.5681C81.4567 34.9429 81.7325 35.3174 82.0121 35.6892C82.4339 36.2501 82.8493 36.8156 83.2615 37.3835C83.2873 37.4189 83.3131 37.4544 83.3397 37.4909C83.3632 37.5234 83.3867 37.5558 83.4109 37.5892C83.4317 37.6179 83.4525 37.6466 83.4739 37.6761C83.5182 37.7429 83.5182 37.7429 83.5182 37.7886C83.2358 37.8079 82.9538 37.8219 82.6708 37.8312C82.5749 37.835 82.479 37.8403 82.3832 37.8471C81.6112 37.9001 81.6112 37.9001 81.3692 37.7161C81.2021 37.5361 81.0849 37.333 80.9729 37.1157C80.8787 36.9427 80.7618 36.7864 80.6458 36.6276C80.6205 36.5917 80.5952 36.5557 80.5691 36.5187C80.4071 36.2895 80.243 36.0619 80.0782 35.8347C79.7852 35.4304 79.4991 35.0215 79.2134 34.6121C78.8132 34.0391 78.4064 33.471 77.996 32.9052C77.8011 33.0796 77.664 33.2931 77.5168 33.5071C77.4594 33.5898 77.402 33.6726 77.3446 33.7553C77.3159 33.7966 77.2873 33.838 77.2578 33.8806C77.1378 34.0534 77.0165 34.2253 76.8949 34.3971C76.8501 34.4605 76.8053 34.5239 76.7605 34.5873C76.7385 34.6184 76.7165 34.6496 76.6938 34.6816C76.5801 34.8425 76.4666 35.0034 76.353 35.1643C76.3073 35.229 76.2617 35.2937 76.2161 35.3583C76.1935 35.3903 76.1709 35.4223 76.1476 35.4553C76.0792 35.5523 76.0107 35.6493 75.9422 35.7462C75.9196 35.7782 75.8971 35.8103 75.8738 35.8432C75.8282 35.9078 75.7826 35.9724 75.737 36.037C75.6221 36.1996 75.5074 36.3624 75.393 36.5253C75.3698 36.5582 75.3467 36.5911 75.3228 36.625C75.2801 36.6858 75.2374 36.7466 75.1948 36.8074C75.1521 36.8681 75.1084 36.928 75.0639 36.9874C74.998 37.0834 74.9445 37.1764 74.8899 37.2787C74.627 37.7392 74.627 37.7392 74.377 37.8242C74.0826 37.8736 73.7884 37.8511 73.492 37.8313C73.402 37.8279 73.3119 37.8248 73.2219 37.822C73.0026 37.8145 72.7839 37.8027 72.565 37.7886C72.7567 37.447 72.7567 37.447 72.8643 37.307C72.8854 37.2794 72.9064 37.2517 72.9281 37.2232C72.9504 37.1942 72.9727 37.1652 72.9957 37.1354C73.1969 36.8705 73.3948 36.6038 73.589 36.3338C73.6136 36.2996 73.6382 36.2654 73.6636 36.2302C73.7136 36.1607 73.7636 36.0911 73.8136 36.0215C73.9372 35.8497 74.0612 35.6782 74.1852 35.5066C74.3331 35.3019 74.481 35.0971 74.6285 34.8921C74.9084 34.5036 75.1905 34.117 75.475 33.732C75.6827 33.4506 75.8879 33.1675 76.0923 32.8837C76.3293 32.5547 76.569 32.2278 76.8094 31.9012C76.7337 31.7342 76.6312 31.5898 76.5241 31.442C76.5043 31.4144 76.4844 31.3868 76.464 31.3584C76.2139 31.0118 75.9596 30.6683 75.7056 30.3247C75.5713 30.1429 75.4373 29.961 75.3033 29.779C75.2501 29.7068 75.1968 29.6345 75.1436 29.5622C74.8241 29.1287 74.5046 28.6951 74.1852 28.2615C74.1588 28.2257 74.1324 28.1899 74.1052 28.153C74.0523 28.0813 73.9995 28.0095 73.9468 27.9378C73.8076 27.7486 73.6678 27.5599 73.527 27.372C73.4977 27.3327 73.4685 27.2935 73.4384 27.2531C73.3824 27.178 73.3262 27.1031 73.2697 27.0283C73.2445 26.9944 73.2192 26.9605 73.1932 26.9256C73.171 26.8959 73.1488 26.8663 73.1259 26.8358C73.0601 26.7333 73.0177 26.63 72.9757 26.5159Z" fill="black"/>
<path d="M143.441 27.5656C142.842 28.778 142.842 28.778 142.711 28.8434C142.598 28.778 142.489 28.7102 142.38 28.6381C141.455 28.0457 140.539 27.7286 139.434 27.7338C139.349 27.7342 139.349 27.7342 139.263 27.7345C138.86 27.7397 138.49 27.7683 138.102 27.885C138.049 27.9006 137.997 27.9161 137.943 27.9321C136.877 28.2818 136.052 28.9199 135.535 29.9273C134.948 31.1246 134.86 32.5621 135.281 33.8294C135.713 34.9366 136.412 35.6878 137.497 36.1798C137.982 36.3724 138.538 36.4925 139.06 36.5107C139.112 36.5125 139.164 36.5143 139.218 36.5162C140.454 36.5371 141.627 36.3103 142.651 35.5845C142.714 35.5401 142.781 35.5001 142.848 35.461C142.893 35.4761 142.938 35.4911 142.985 35.5066C143.043 35.6311 143.043 35.6311 143.1 35.7958C143.11 35.8248 143.12 35.8538 143.13 35.8836C143.151 35.945 143.172 36.0065 143.193 36.068C143.224 36.1622 143.257 36.256 143.29 36.3499C143.31 36.4095 143.331 36.4692 143.351 36.5289C143.379 36.6105 143.379 36.6105 143.407 36.6938C143.441 36.8301 143.441 36.8301 143.396 36.9671C143.285 37.0393 143.176 37.1039 143.059 37.1667C143.009 37.1941 143.009 37.1941 142.958 37.222C141.351 38.0933 139.185 38.3279 137.417 37.8342C137.381 37.8244 137.346 37.8146 137.309 37.8045C136.374 37.5404 135.614 37.085 134.907 36.4194C134.879 36.3948 134.852 36.3702 134.824 36.3449C133.888 35.4747 133.392 34.0694 133.314 32.8198C133.313 32.7727 133.311 32.7256 133.31 32.6771C133.309 32.6429 133.307 32.6087 133.306 32.5735C133.257 30.9458 133.678 29.436 134.804 28.2227C134.838 28.1866 134.872 28.1504 134.907 28.1132C134.938 28.079 134.97 28.0447 135.002 28.0095C137.043 25.8546 141.192 25.6223 143.441 27.5656Z" fill="black"/>
</svg>
