<svg width="100" height="100" viewBox="0 0 100 100" fill="none" xmlns="http://www.w3.org/2000/svg">
<g clip-path="url(#clip0_504_3529)">
<g clip-path="url(#clip1_504_3529)">
<path d="M73.4177 94.5658C72.9988 94.5658 72.5798 94.6019 72.1611 94.6019C56.7257 94.6019 41.2875 94.527 25.8521 94.6537C21.498 94.6898 16.5209 91.975 15.797 85.6043C15.2437 80.7152 14.4241 75.8545 13.7286 70.9782C12.9891 65.7519 12.2566 60.525 11.5309 55.2971C11.3396 53.9266 11.1379 52.5564 10.9414 51.1861C11.2724 50.8423 11.7171 50.8888 12.123 50.8888C21.1894 50.8888 30.2569 50.8888 39.3251 50.8888C40.0344 50.8954 40.7363 51.0357 41.3935 51.3023C43.2861 52.0445 45.2408 52.6107 47.1437 53.3294C48.7416 53.9319 50.3497 54.5679 52.1104 53.9837C52.1668 53.9961 52.2186 54.024 52.2602 54.0642C52.3017 54.1044 52.3314 54.1552 52.3457 54.2111C52.1467 57.032 50.1326 58.4385 47.4514 57.5904C44.7702 56.7423 42.2131 55.7676 39.5785 54.8937C38.97 54.6801 38.3308 54.5673 37.6859 54.5602C32.589 54.5602 27.493 54.5602 22.3979 54.5602C21.2678 54.5602 21.2603 54.5937 21.4283 55.7185C21.8542 58.5264 22.6542 61.2646 23.807 63.8602C22.1004 65.1116 22.0643 66.8982 22.0876 68.7934C22.1495 73.9644 22.1082 79.1354 22.1107 84.2884C22.0931 84.7405 22.1096 85.1933 22.16 85.6431C22.2483 86.3224 22.582 86.9457 23.0984 87.3958C23.6147 87.846 24.2777 88.0916 24.9626 88.0864C25.6293 88.061 26.266 87.8029 26.7623 87.357C27.2586 86.9113 27.5833 86.3057 27.6799 85.6456C27.7288 85.2288 27.7461 84.8088 27.7317 84.3893C27.7317 80.5472 27.7317 76.7059 27.7317 72.8656C27.6981 72.383 27.7267 71.8981 27.8171 71.4229C27.9593 71.017 28.2308 71.0248 28.4634 71.2935C30.193 73.305 32.2614 74.9417 34.3196 76.5862C34.3617 76.6354 34.3917 76.6938 34.4075 76.7567C34.6143 78.2021 34.4748 79.655 34.5031 81.1029C34.5264 82.2638 34.5031 83.43 34.5031 84.5856C34.5031 86.7757 35.5969 88.1149 37.3473 88.1019C39.0458 88.1019 40.1344 86.7394 40.1447 84.6297C40.1447 83.4998 40.1447 82.3725 40.1447 81.2426C40.1447 80.8574 40.1163 80.467 40.3257 80.1102C40.5999 79.8232 40.9204 79.9292 41.2177 80.0326C42.7797 80.5994 44.3831 81.0445 46.0138 81.3641C46.1576 81.3806 46.2963 81.4271 46.4211 81.5007C46.5459 81.574 46.6537 81.673 46.7378 81.7907C47.0661 82.8249 46.8515 83.8952 46.898 84.9502C46.9291 85.6353 47.0014 86.2972 47.4151 86.8764C47.7306 87.3467 48.182 87.7098 48.7091 87.9168C49.2363 88.1236 49.814 88.165 50.3652 88.0348C50.9326 87.8984 51.4444 87.5918 51.8323 87.1558C52.22 86.72 52.4651 86.1759 52.5345 85.5965C52.6275 84.7977 52.5501 83.9909 52.5811 83.1868C52.5966 82.7784 52.5371 82.3337 52.9533 82.0492C54.9138 81.8123 56.8949 81.7983 58.8587 82.0079C59.2957 82.2044 59.2879 82.6103 59.3034 82.993C59.3317 83.6989 59.3034 84.4073 59.3189 85.1157C59.3731 86.7679 60.4022 87.9597 61.8837 88.1071C63.2953 88.2441 64.5519 87.2823 64.9605 85.7491C64.996 85.5593 65.0542 85.3744 65.1336 85.1984C65.6714 84.9036 65.6817 85.426 65.8111 85.6716C66.4006 86.8118 66.9177 87.9985 67.6001 89.0793C68.9679 91.2614 70.571 93.1903 73.0634 94.1624C73.2366 94.2322 73.415 94.3279 73.4177 94.5658Z" fill="#6864F7"/>
<path d="M34.2224 76.566C32.9296 75.9404 31.8954 74.9864 30.8612 74.0401C29.8658 73.1326 28.9763 72.1061 28.0405 71.134C27.7122 70.834 27.7663 70.4306 27.7613 70.0532C27.7457 69.019 27.7613 67.9848 27.7613 66.9661C27.7147 64.921 26.5513 63.8247 24.519 63.8946C24.2605 63.8946 24.0019 63.9695 23.7795 63.7834C23.3711 63.7419 23.3167 63.398 23.1953 63.1033C22.1611 60.6007 21.5328 57.9814 21.07 55.3185C20.9355 54.5427 21.0492 54.235 21.9903 54.2454C27.2156 54.3048 32.441 54.279 37.6636 54.2687C38.3691 54.2631 39.0698 54.385 39.732 54.6281C42.2712 55.5486 44.8384 56.3965 47.3981 57.2627C49.8519 58.0953 51.4185 57.2627 52.0701 54.7781C52.1194 54.5945 52.0934 54.3877 52.2847 54.261C52.6596 53.9299 53.1225 53.9558 53.5775 53.9558C64.6573 53.9558 75.737 53.9558 86.8168 53.9558C87.2615 53.9558 87.732 53.9041 88.1096 54.2583L87.2227 60.5954C87.0935 60.9495 86.7392 60.9833 86.4472 61.0995C85.1543 61.6349 84.0658 62.4285 83.4117 63.7135C82.9441 64.4336 82.665 65.2594 82.5998 66.1155C82.615 66.4017 82.5379 66.6854 82.38 66.9248C82.1997 67.0424 81.9956 67.1185 81.7824 67.1476C81.5691 67.1765 81.352 67.1578 81.1467 67.0928C81.0377 66.9712 80.97 66.8183 80.9529 66.6559C81.1001 64.7658 81.3924 62.8939 81.625 61.0143C81.7259 60.1973 81.7181 59.4112 81.1985 58.7106C80.4746 57.7385 79.5876 57.4825 78.1966 57.8574C77.1624 58.3925 76.7334 59.2665 76.798 60.4066C76.9065 62.2787 77.2555 64.1247 77.4313 65.9888C77.4649 66.3404 77.5813 66.692 77.377 67.023C77.0565 67.2815 76.6919 67.1625 76.3583 67.1031C73.5532 66.586 71.0038 67.2506 68.6329 68.7553C67.547 69.3526 66.7507 70.2574 65.9827 71.2037C65.7939 71.4365 65.6079 72.0958 65.0933 71.4856C64.8709 70.1048 65.0159 68.7165 64.9926 67.3307C64.9563 65.2002 63.8988 63.8868 62.1717 63.8868C60.4446 63.8868 59.3666 65.208 59.3638 67.3385C59.3638 71.7933 59.3638 76.2482 59.3638 80.7028C59.3638 81.2046 59.4828 81.737 59.0691 82.174H52.8897C52.4735 81.75 52.5872 81.2071 52.5847 80.7055C52.5847 76.3101 52.5847 71.9303 52.5847 67.5401C52.6074 67.0564 52.5761 66.5717 52.4915 66.0947C52.3656 65.4676 52.0262 64.9036 51.5313 64.4982C51.0365 64.0929 50.4165 63.8713 49.7768 63.8713C49.1371 63.8713 48.5171 64.0929 48.0223 64.4982C47.5274 64.9036 47.188 65.4676 47.0621 66.0947C46.9775 66.5717 46.9462 67.0564 46.9689 67.5401C46.9689 71.7984 46.9689 76.0594 46.9689 80.3176C46.9689 80.8192 47.0826 81.3519 46.6587 81.7811C44.5606 81.3542 42.4968 80.7725 40.4845 80.041C40.0683 79.617 40.1872 79.0741 40.1845 78.5725C40.1845 74.8932 40.1845 71.2141 40.1845 67.5349C40.2064 67.0511 40.1744 66.5662 40.0889 66.0897C39.9579 65.4667 39.6166 64.9078 39.1222 64.5068C38.628 64.1057 38.0107 63.8866 37.3741 63.8866C36.7375 63.8866 36.1203 64.1057 35.6261 64.5068C35.1319 64.9078 34.7904 65.4667 34.6594 66.0897C34.5779 66.5346 34.5467 66.9873 34.5663 67.4392C34.5663 70.0247 34.5663 72.6102 34.5663 75.1957C34.5119 75.6612 34.6103 76.1705 34.2224 76.566Z" fill="#D2DCFD"/>
<path d="M68.3479 68.6569C71.0678 66.7643 74.036 66.2653 77.2472 67.0255C77.6504 67.333 77.6246 67.8191 77.7643 68.2433C78.0048 69.0369 78.5942 69.554 79.2716 69.4998C80.0474 69.4403 80.4738 68.9594 80.6834 68.2433C80.8074 67.8191 80.7841 67.333 81.2005 67.0255L82.3251 66.834C82.6922 66.4566 83.1655 66.4048 83.6515 66.4153C84.509 66.4123 85.3635 66.5158 86.1957 66.7228C86.232 66.8126 86.2922 66.8908 86.3696 66.9492C86.447 67.0075 86.5388 67.0435 86.6352 67.0538C91.3976 68.1734 95.7853 73.1221 94.5312 79.9814C94.045 82.809 93.0834 85.5339 91.6873 88.0404C87.7546 89.0746 83.8634 88.9066 80.1222 87.3372C73.0173 84.3561 69.0537 78.9446 68.1668 71.3071C68.0351 70.4384 67.8876 69.5101 68.3479 68.6569Z" fill="#F7664F"/>
<path d="M52.2643 54.0759C50.1726 55.2005 48.3419 53.9673 46.465 53.383C44.5026 52.7701 42.5867 52.0333 40.6397 51.3377C40.2734 51.2151 39.8882 51.1582 39.5021 51.1697L10.9556 51.1774H8.24595C6.08447 51.1774 4.73482 49.8848 4.75811 47.9326C4.77619 46.4434 6.30941 44.6154 8.43469 45.011C8.51232 45.0692 8.57667 45.1432 8.62343 45.2281C9.31894 47.1726 10.8521 47.625 12.7137 47.612C17.1608 47.5837 21.6079 47.612 26.099 47.612C24.0744 47.007 22.143 46.2856 20.204 45.585C19.9221 45.4843 19.5472 45.4427 19.5265 45.011H21.8147L21.8457 44.8327L14.9631 42.441C12.8688 41.7196 10.7694 41.0087 8.68032 40.277C6.98423 39.685 6.24476 38.5784 6.35336 36.8486C6.82651 36.6495 7.24278 36.8926 7.64612 37.0399C14.9941 39.6254 22.3603 42.1438 29.716 44.6982C35.6627 46.7666 41.6093 48.835 47.5871 50.8569C49.1823 51.3947 50.4776 51.0224 51.2068 49.8898C51.7445 49.0624 51.6669 48.8556 50.7361 48.5118C48.0317 47.5344 45.2911 46.6605 42.5892 45.6678C42.2752 45.5877 41.9776 45.4528 41.7102 45.2697C41.4516 45.0446 41.5655 44.8921 41.8214 44.7731C42.9978 44.5327 44.1898 44.6594 45.3712 44.6647C47.1967 44.6647 49.0245 44.5482 50.85 44.7473C55.3126 46.216 59.8604 47.1906 64.5764 47.3872C74.0575 47.7776 83.5411 47.4543 93.017 47.5732C93.5859 47.5732 94.1909 47.4465 94.6847 47.881C94.726 49.8407 93.4592 51.1491 91.4992 51.1646C90.5065 51.1646 89.5137 51.1646 88.5208 51.1646C88.0037 51.5653 87.4142 51.4619 86.8428 51.4619C76.5731 51.4619 66.3044 51.4619 56.0365 51.4619C55.7133 51.4619 55.39 51.4826 55.067 51.4619C54.3585 51.4103 53.9293 51.674 53.7095 52.3901C53.4898 53.1063 53.0992 53.8353 52.2643 54.0759Z" fill="#D2DCFD"/>
<path d="M59.9887 25.5599C59.6138 24.4843 58.9235 23.5483 58.8148 22.3461C58.5563 19.4218 59.999 16.8932 62.7164 15.8176C63.1998 15.6263 63.4481 15.4401 63.5774 14.8584C64.26 11.7971 67.1971 9.26853 70.0954 9.12891C70.354 9.40814 70.2298 9.73651 70.2015 10.0493C70.1033 11.283 70.2578 12.5236 70.6552 13.6956C71.0527 14.8675 71.6847 15.9461 72.513 16.8656C73.3414 17.7851 74.3482 18.5261 75.4725 19.0434C76.5967 19.5607 77.8144 19.8434 79.0516 19.8743C79.3877 19.862 79.7228 19.9164 80.0377 20.0339C80.3528 20.1513 80.6415 20.33 80.8874 20.5594C84.2046 23.662 89.0809 23.7939 92.6668 20.9265C92.9978 20.6681 93.2382 20.187 93.7941 20.319C94.032 21.9737 93.5072 23.4449 92.7134 24.8565C92.5453 25.1565 92.23 25.3736 92.1963 25.7589C91.718 26.8422 90.6915 27.3102 89.771 27.8842C89.5357 28.0121 89.3333 28.1931 89.1802 28.4131C89.0271 28.6332 88.9276 28.8858 88.8895 29.151C88.3724 31.6927 86.7796 33.2879 84.3674 34.1179C81.9551 34.728 79.8582 34.0946 78.0044 32.5071C77.5108 32.0381 77.1138 31.4767 76.8357 30.8549C76.5643 30.1905 76.1894 29.9862 75.4888 30.2318C74.4984 30.5617 73.4285 30.5661 72.4352 30.2448C70.9844 29.856 69.7127 28.9772 68.8363 27.7575C68.4536 27.2404 68.0916 27.1422 67.5434 27.4187C66.6877 27.8429 65.7517 27.9358 64.8132 28.0134C63.2308 28.0134 61.8838 27.4239 60.6919 26.426C60.3997 26.1932 60.0766 25.9761 59.9887 25.5599Z" fill="#7AB82D"/>
<path d="M93.7971 20.3262C92.5303 21.4303 91.2116 22.4309 89.5414 22.8756C86.2036 23.7649 83.2432 23.0695 80.7068 20.7346C80.4903 20.5278 80.2334 20.3677 79.9522 20.2647C79.6711 20.1615 79.3717 20.1172 79.0726 20.1349C73.8681 20.1349 69.4883 15.3595 69.92 10.1652C69.9484 9.81614 70.039 9.47227 70.0984 9.13098C71.2179 9.22922 71.8823 8.75091 72.5469 7.78392C74.4187 5.05104 77.8731 4.01168 81.0326 5.00709C82.5684 5.47698 83.9154 6.42203 84.8799 7.70623C85.8444 8.99042 86.3767 10.5475 86.4 12.1534C86.4 12.8179 86.5267 13.0894 87.2661 13.1876C90.847 13.5884 93.6033 16.66 93.7971 20.3262Z" fill="#A0D41C"/>
<path d="M68.347 68.6523C68.2129 71.5188 68.7172 74.3791 69.8234 77.0269C71.3218 80.5585 73.8714 83.5429 77.1259 85.5743C80.3805 87.6056 84.1816 88.5851 88.0124 88.3798C89.065 88.2882 90.1121 88.1398 91.1486 87.9351C91.3502 87.9015 91.5209 87.8317 91.6657 88.0437C90.7419 90.0027 89.3994 91.7353 87.7332 93.1191C85.3648 95.0841 82.7457 94.9005 80.0801 93.9207C79.8077 93.8019 79.5137 93.7406 79.2164 93.7406C78.9194 93.7406 78.6254 93.8019 78.353 93.9207C76.7862 94.5328 75.0932 94.7513 73.4224 94.5567C70.2061 93.4759 68.3548 90.9678 66.7982 88.1755C66.2398 87.1723 65.764 86.1071 65.2677 85.0729C65.0933 84.9854 64.9598 84.8333 64.8954 84.6489C63.7707 81.5333 62.9562 78.361 63.7009 75.0308C63.9593 73.8364 64.1922 72.554 65.2755 71.7161C66.1804 70.5968 67.0206 69.3815 68.347 68.6523Z" fill="#CB5144"/>
<path d="M41.5945 44.9887C44.7514 46.103 47.8928 47.2639 51.0705 48.3084C52.0296 48.6239 51.9961 49.0299 51.616 49.746C51.2948 50.3902 50.7515 50.8969 50.0864 51.1724C49.4212 51.4479 48.6791 51.4739 47.9963 51.2455C43.4147 49.6942 38.8514 48.1094 34.2932 46.5322C31.2767 45.498 28.2602 44.4569 25.2438 43.4089C18.9421 41.2215 12.642 39.0307 6.34375 36.8365C6.77293 34.6622 8.48971 33.6097 10.5555 34.3156C15.119 35.867 19.6694 37.4776 24.2303 39.0549C24.6207 39.1894 25.0369 39.2565 25.4403 39.3574C26.8675 39.5255 28.1421 40.2054 29.5176 40.5519C32.2841 41.5861 35.0868 42.5272 37.8843 43.4735C38.89 43.8123 39.8726 44.2052 40.8758 44.5465C41.1447 44.6499 41.4369 44.7145 41.5945 44.9887Z" fill="#6864F7"/>
<path d="M41.5967 44.992C38.2562 43.8569 34.9132 42.7348 31.5804 41.5764C30.8359 41.318 30.0291 41.2093 29.375 40.7077C29.3737 40.5628 29.4164 40.4208 29.4977 40.3007C29.579 40.1805 29.695 40.088 29.83 40.0356C30.9131 39.4867 31.8191 38.6434 32.4441 37.6026C32.4805 37.513 32.5487 37.4402 32.6354 37.3977C32.7221 37.3552 32.8217 37.3463 32.9146 37.3725C35.4433 39.5158 38.4036 40.2785 41.6485 40.0018C43.024 39.8856 43.0653 39.7098 42.2793 38.5953C40.6453 36.277 39.0311 33.9441 37.4366 31.5965C37.2222 31.281 36.9455 30.9888 36.9195 30.5623C38.2381 29.7865 39.6965 29.5281 41.1908 29.4297C41.938 29.8771 41.9665 30.7846 42.4526 31.4154C43.2281 32.4211 43.2464 32.4496 44.3787 31.8188C45.744 31.0431 46.9978 30.0762 48.5155 29.6107C50.1342 29.7995 50.6848 30.7018 50.1522 32.2894C49.118 33.4012 47.7012 33.9183 46.4549 34.7041C45.0716 35.5781 45.1881 35.2497 46.036 36.5657C46.4033 37.1346 46.8556 37.6414 47.2021 38.2231C47.4916 38.7142 47.8304 38.779 48.3217 38.4816C49.7591 37.6284 51.2097 36.7933 52.6626 35.9634C53.4384 35.5109 54.2139 35.3687 54.9717 35.9867C55.5895 36.5038 55.7084 37.1501 55.5043 37.8869C55.3465 38.4533 54.9096 38.7738 54.439 39.0555C53.03 39.8158 51.6855 40.6922 50.2712 41.4447C49.8264 41.6826 49.7541 41.9075 50.0643 42.3237C50.4935 42.8821 50.8554 43.4898 51.2536 44.074C51.4424 44.3482 51.7707 44.617 51.4501 45.0073C51.2648 45.0541 51.0694 45.0415 50.8917 44.9713L41.5967 44.992Z" fill="#E49630"/>
<path d="M49.927 32.3608C50.4804 30.7939 49.9711 29.964 48.3757 29.8373C48.1293 29.7539 47.9223 29.5828 47.794 29.3563C46.3824 27.0087 44.9165 24.7024 43.5227 22.3367C43.4797 22.2492 43.4533 22.1545 43.4453 22.0575C43.4661 21.9062 43.521 21.7616 43.6062 21.6347C43.6913 21.508 43.8043 21.4023 43.9364 21.3258C44.7613 20.8861 45.5653 20.4028 46.4936 20.2062C47.0107 20.0976 47.507 19.9864 48.0009 20.2656C49.7202 20.3199 51.3103 20.7466 52.6342 21.9153C52.6548 22.3418 52.2721 22.3961 52.0214 22.5616C51.2715 23.0554 50.4261 23.3993 49.7177 23.9604C49.0092 24.5214 48.8851 25.1033 49.2729 25.7186C49.6245 26.2795 50.3485 26.4606 51.0829 26.1142C51.9826 25.685 52.815 25.1341 53.6917 24.6611C53.9657 24.5136 54.2088 24.2682 54.5759 24.418L56.5847 28.6582C56.0185 29.5115 54.9999 29.7079 54.2319 30.2743C53.9756 30.4072 53.7301 30.5603 53.4976 30.7318C53.0349 31.1973 52.7401 31.7299 53.1693 32.3608C53.57 32.9477 54.1259 33.232 54.8344 32.9217C55.4834 32.6374 56.0548 32.2082 56.6754 31.872C57.058 31.6651 57.4199 31.3291 57.9214 31.5384L61.2464 38.5272C60.1662 39.5266 58.8778 40.2746 57.4742 40.717C56.5199 40.6668 55.5967 40.3614 54.8008 39.8328C54.5008 39.6235 54.1182 39.4424 54.2088 38.9589C55.5893 37.9893 55.8065 36.9423 54.78 36.1277C54.0458 35.546 53.3399 35.8693 52.6445 36.2364C52.3109 36.4458 52.0783 36.2364 51.918 36.001C51.2009 34.941 50.5347 33.85 49.9193 32.7279C49.8956 32.6695 49.884 32.6066 49.8853 32.5435C49.8867 32.4803 49.9008 32.4182 49.927 32.3608Z" fill="#F8E009"/>
<path d="M50.9062 44.9948L51.4905 44.9275C51.8733 44.6147 52.3334 44.6535 52.7833 44.6508C56.1877 44.6508 59.591 44.6508 62.9934 44.6508C63.4409 44.6508 63.8984 44.6302 64.2863 44.9353H66.7994C67.7482 44.4182 68.7694 44.7337 69.7573 44.6768C72.6788 44.6172 75.6029 44.6586 78.5247 44.656C78.912 44.6165 79.3007 44.7164 79.6208 44.9378C83.5818 44.9378 87.5403 44.9378 91.5013 44.9663C93.3266 44.9663 94.4798 46.0393 94.7074 47.8828C85.4822 47.8828 76.2545 47.9422 67.0295 47.8413C61.661 47.8246 56.332 46.9212 51.2578 45.1679C51.1366 45.1188 51.0192 45.0608 50.9062 44.9948Z" fill="#6864F7"/>
<path d="M52.2617 54.0782C52.9288 53.3335 53.6139 52.5992 53.645 51.5055C53.645 51.2703 53.8363 51.1874 54.0484 51.1797C54.2087 51.1797 54.3717 51.1797 54.5319 51.1797H88.539L88.0737 54.2668H52.2617C52.2617 54.2047 52.2617 54.1418 52.2617 54.0782Z" fill="#6864F7"/>
<path d="M79.6182 44.9322H69.7081C69.5816 44.7834 69.4981 44.6027 69.4673 44.4099C69.4362 44.217 69.4587 44.0195 69.5323 43.8384C70.525 40.5678 70.0494 37.3437 69.2581 34.1274C69.2193 33.9722 69.191 33.8119 69.1677 33.6541C68.9919 32.514 69.2504 32.2709 70.3337 32.6199C71.1663 32.8786 72.0452 32.9122 72.8804 33.15C73.3716 33.3619 73.4157 33.8299 73.5114 34.2669C73.8655 35.8933 74.2223 37.5195 74.5456 39.2491C75.0471 38.5124 75.3031 37.7574 75.6469 37.049C75.9339 36.4568 76.0633 35.7561 76.7251 35.3942C76.9512 35.4022 77.1677 35.4882 77.3379 35.6372C78.7677 36.6921 80.3396 37.1627 82.1185 36.8266C82.4676 36.7593 82.832 36.7826 83.0233 37.1807C83.0609 37.2832 83.0652 37.3949 83.0355 37.4997C83.0058 37.6047 82.9436 37.6976 82.858 37.7652C82.0822 38.8484 81.7306 40.1283 81.1747 41.3125C80.6188 42.4967 80.1353 43.7222 79.6182 44.9322Z" fill="#C3F136"/>
<path d="M82.8672 37.7702L82.9345 37.2323C83.224 36.0249 83.6507 34.8822 84.4678 33.9178C86.4689 33.0517 88.1391 31.7796 88.532 29.5354C88.5877 29.0594 88.7709 28.6073 89.0621 28.227C89.3534 27.8465 89.742 27.5518 90.1867 27.3738C90.9833 26.9937 91.5159 26.2803 92.2113 25.7734C93.8868 26.6912 94.7632 28.1185 94.7141 30.0189C94.6649 31.9191 93.698 33.3024 91.9759 34.1169C91.5985 34.2952 91.4951 34.4477 91.552 34.8925C91.7086 35.9699 91.478 37.068 90.9016 37.9916C90.3249 38.9152 89.4395 39.6044 88.4028 39.9368C86.249 40.6557 84.1238 39.8231 82.8672 37.7702Z" fill="#5B9F06"/>
<path d="M73.0242 33.3176C71.9946 33.3403 70.9703 33.1647 70.0069 32.8005C69.8182 32.7256 69.6113 32.4825 69.4045 32.7204C69.2467 32.9039 69.3218 33.1548 69.3657 33.372C69.6088 34.5975 69.8286 35.8308 70.1156 37.046C70.6327 39.2927 70.3741 41.4981 69.8337 43.6932C69.7522 44.1021 69.7089 44.5175 69.7044 44.9343H66.7932C68.0575 42.0437 67.1009 39.2126 66.5527 36.3737C66.3201 35.1767 66.064 33.9847 65.8185 32.7902C65.7091 32.7233 65.6152 32.6342 65.5424 32.5287C65.4698 32.4231 65.4204 32.3034 65.3971 32.1775C65.1384 30.9933 64.88 29.8039 64.6859 28.6069C64.6499 28.4833 64.6466 28.3525 64.6766 28.2273C64.7065 28.1022 64.7686 27.9871 64.8567 27.8932C65.9761 27.5597 67.1836 27.5313 68.1997 26.859C68.4892 26.6652 68.5823 27.0037 68.691 27.1693C69.5644 28.538 70.8931 29.5543 72.4425 30.0392C73.0579 31.0527 73.3913 32.1231 73.0242 33.3176Z" fill="#A0D41C"/>
<path d="M36.9256 30.5818C37.771 31.3909 38.2726 32.4536 38.9577 33.3819C40.3332 35.246 41.5923 37.1929 42.929 39.0855C43.3712 39.7111 43.3402 39.9853 42.5153 40.1197C39.1543 40.7092 36.1371 39.9129 33.3292 38.0901C33.1986 38.024 33.0864 37.9272 33.002 37.8076C32.9178 37.6881 32.8641 37.5499 32.8456 37.4048C32.631 36.6939 33.0758 36.1768 33.3627 35.6131C33.6212 35.3985 33.9652 35.4398 34.2755 35.3857C35.457 35.1788 35.8526 34.1497 35.1467 33.1698C34.8882 32.7975 34.3711 32.5701 34.41 32.0011C35.2166 31.4685 35.9843 30.8738 36.9256 30.5818Z" fill="#FBBB04"/>
<path d="M64.2787 44.9373H51.4909C50.9117 44.0531 50.3558 43.1508 49.7405 42.2924C49.4405 41.8735 49.5052 41.6486 49.9241 41.4132C51.3564 40.6066 52.768 39.787 54.2082 38.9727C55.0382 40.0688 56.2766 40.3016 57.5126 40.524C57.603 40.8523 57.3548 41.0616 57.2306 41.3125C57.1055 41.5211 57.0449 41.7623 57.0568 42.0052C57.0688 42.2483 57.1528 42.4823 57.298 42.6775C57.621 43.1145 58.089 43.1946 58.5906 43.1456C59.0922 43.0965 59.5344 42.7604 59.9869 42.5225C60.8245 42.0855 61.5382 41.3771 62.5361 41.2815C63.1923 42.4627 63.7744 43.6838 64.2787 44.9373Z" fill="#FBBB04"/>
<path d="M43.4922 22.0625C44.9556 23.9654 46.0183 26.1217 47.3318 28.1204C47.6989 28.6814 48.0349 29.2631 48.3865 29.8345C46.9619 30.6439 45.5243 31.4247 44.123 32.2728C43.4121 32.702 42.9854 32.6709 42.5046 31.9082C42.0257 31.1138 41.594 30.2919 41.2117 29.4467C40.811 27.4275 40.9843 25.4857 41.9875 23.6579C42.0661 23.2787 42.2483 22.9289 42.5141 22.6471C42.7797 22.3656 43.1183 22.1632 43.4922 22.0625Z" fill="#FBBB04"/>
<path d="M64.8559 27.8998L65.8177 32.7968C63.3201 34.2369 60.7967 33.8776 59.2814 31.8608C57.7664 29.8442 58.0844 27.2302 59.9899 25.5547C61.3681 26.8217 62.9194 27.7525 64.8559 27.8998Z" fill="#5B9F06"/>
<path d="M19.5175 44.9883L26.956 47.6747C26.7286 47.9566 26.4907 47.8582 26.2889 47.8582C21.5386 47.8582 16.7881 47.8582 12.0377 47.8582C9.94601 47.8582 8.61963 46.788 8.41797 44.996L19.5175 44.9883Z" fill="#6864F7"/>
<path d="M48.0056 20.2629C46.5241 20.2629 45.2443 20.9015 43.9592 21.5273C43.6567 21.6049 43.5378 21.3773 43.4784 21.173C43.1939 20.1906 42.7467 19.2468 42.744 18.1971C42.6147 16.5967 41.9529 15.1333 41.5753 13.5949C41.2703 12.3513 41.2367 12.3565 42.4958 12.0074C42.8319 11.9143 43.1759 11.8549 43.5172 11.7799C43.9877 11.7411 43.9772 12.1548 44.0834 12.4211C44.3129 12.9864 44.4938 13.5702 44.6238 14.1663C44.9624 15.7331 45.7742 16.9354 47.2739 17.6076C47.4739 17.7103 47.6544 17.8478 47.8065 18.0136C48.1063 18.7427 47.9227 19.5157 48.0056 20.2629Z" fill="#7AB82D"/>
<path d="M42.7518 18.1959C43.2301 18.925 43.2689 19.7989 43.5481 20.5952C43.6593 20.9158 43.6593 21.2881 43.9643 21.5235L43.4913 22.0611C42.8552 22.4671 42.4571 23.0954 41.9813 23.654C39.4612 22.0026 36.9405 20.3538 34.4186 18.7078C34.0748 18.4855 33.9533 18.3148 34.3257 18.0046C34.7651 17.64 35.1788 17.2289 35.6028 16.854C36.0062 16.7402 36.2751 17.0169 36.5569 17.2082C37.4929 17.8365 38.4623 18.4079 39.4008 19.0181C39.6872 19.2305 40.0002 19.4043 40.3316 19.5352C40.6368 19.6386 40.9859 19.7937 41.2573 19.5868C41.5779 19.3283 41.3245 18.9871 41.2573 18.6923C41.1204 18.2635 41.0065 17.8276 40.916 17.3866C40.8798 17.11 40.6574 16.7222 41.203 16.6523L42.7518 18.1959Z" fill="#5B9F06"/>
<path d="M34.4159 32.012C34.6538 32.2707 34.8787 32.5447 35.1321 32.7878C35.6853 33.3229 35.9645 33.9332 35.6492 34.6907C35.3337 35.4482 34.7262 35.7068 33.9426 35.655C33.7824 35.655 33.6221 35.655 33.4618 35.655C32.9577 35.5464 32.7301 35.0863 32.3681 34.7991C32.032 34.3699 31.4943 34.1037 31.3339 33.5298C30.5763 32.5239 29.5965 31.7198 28.7355 30.8253C27.8746 29.9306 27.7995 29.0672 28.5054 28.3743C29.2113 27.6814 30.0567 27.7821 30.9565 28.6457L34.4159 32.012Z" fill="#A1D41C"/>
<path d="M86.1751 66.7099C85.7651 66.9055 85.2951 66.9342 84.8644 66.7901C84.006 66.5316 83.1579 66.6996 82.3047 66.8211C82.3047 65.6447 82.4572 64.5123 83.2147 63.5505C83.675 63.2247 84.2051 63.292 84.7117 63.3151C86.8965 63.3644 88.7711 62.7256 90.1413 60.9289C90.297 60.7667 90.4704 60.6227 90.6584 60.4997C91.6746 60.4581 91.7883 60.5616 91.5685 61.5339C90.9274 64.4735 89.0581 66.1307 86.1751 66.7099Z" fill="#7AB82D"/>
<path d="M32.4856 34.6836C32.8835 34.9283 33.2211 35.2597 33.4732 35.6532L32.8474 37.4113C32.1002 38.6679 31.1591 39.7201 29.7863 40.3251C29.6259 40.395 29.5147 40.5838 29.3777 40.7103C28.0125 40.4212 26.687 39.9689 25.4297 39.3633L26.0683 37.7837C26.3269 37.538 26.65 37.5406 26.9707 37.525C27.9042 37.5439 28.8294 37.3452 29.6728 36.9449C30.5165 36.5448 31.2554 35.9537 31.8315 35.2187C32.0201 35.0144 32.1753 34.756 32.4856 34.6836Z" fill="#5B9F06"/>
<path d="M47.8061 18.013C45.9964 17.5786 44.9932 16.379 44.4942 14.6519C44.2124 13.6797 44.0624 12.6584 43.5195 11.7742L47.4287 10.6133L47.8061 18.013Z" fill="#A0D41C"/>
<path d="M41.2018 16.6585C40.8036 17.1368 41.2664 17.5556 41.3182 17.9952C41.3997 18.4669 41.528 18.9294 41.7008 19.3758C41.8508 19.8283 41.644 19.9498 41.2406 19.9576C40.6628 19.9686 40.096 19.7988 39.6194 19.4715C38.288 18.5898 36.9435 17.7289 35.6016 16.8602C36.4677 16.0095 37.3469 15.1692 38.1871 14.3031C38.4768 14.0083 38.6578 13.998 38.9448 14.3031C39.6842 15.1072 40.4495 15.8777 41.2018 16.6585Z" fill="#7AB82D"/>
<path d="M62.5416 41.277C61.5823 41.8537 60.623 42.4354 59.6586 43.0043C58.6504 43.5988 57.6343 43.555 57.1067 42.906C56.5793 42.2571 56.6647 41.5487 57.5128 40.517C58.8598 40.0465 59.9534 39.1002 61.2487 38.5312C61.7914 39.3897 62.2257 40.3119 62.5416 41.277Z" fill="#E49730"/>
<path d="M54.5758 24.4169C53.4865 25.0374 52.3962 25.657 51.3052 26.2758C50.4623 26.7541 49.4952 26.5965 49.0713 25.9164C48.5542 25.1098 48.7455 24.2747 49.6635 23.6852C50.6356 23.062 51.649 22.501 52.6444 21.9141C53.5418 22.5177 54.2194 23.3959 54.5758 24.4169Z" fill="#E49730"/>
<path d="M32.4838 34.6869C31.3124 36.7088 29.5259 37.6861 27.2248 37.7895C26.8422 37.8051 26.4491 37.7895 26.0742 37.7895C26.9429 35.2764 28.7864 33.963 31.3384 33.5312C31.7874 33.8435 32.1756 34.235 32.4838 34.6869Z" fill="#7AB82D"/>
<path d="M57.9198 31.5301C56.9011 31.8689 56.0685 32.5435 55.1455 33.0556C54.5172 33.4046 53.933 33.4227 53.3538 32.9702C52.4178 32.2385 52.4618 31.0232 53.4883 30.4054C54.5147 29.7874 55.5567 29.2341 56.5909 28.6523C57.1462 29.5556 57.5923 30.5217 57.9198 31.5301Z" fill="#E49730"/>
<path d="M90.6677 60.5062C89.6153 62.5746 87.7848 63.3684 85.6182 63.5624C84.8244 63.6321 84.0203 63.5624 83.2188 63.5624C84.0644 61.936 85.494 61.0906 87.1875 60.602C88.3416 60.4548 89.5074 60.4227 90.6677 60.5062Z" fill="#A0D41C"/>
<path d="M81.1843 67.0286C81.1092 67.4683 81.0446 67.913 80.9517 68.3498C80.8778 68.7636 80.6566 69.1368 80.3292 69.4005C80.0019 69.6642 79.5904 69.8008 79.1703 69.7848C78.2472 69.7435 77.7069 69.2159 77.4895 68.3498C77.3811 67.918 77.332 67.4708 77.2544 67.0286C77.0268 65.1878 76.8432 63.3392 76.5615 61.506C76.2485 59.4789 76.608 58.4447 78.061 57.6406C78.4591 57.9586 78.4669 58.4164 78.5212 58.8689C78.7228 60.5649 79.015 62.2532 79.1287 63.957C79.2194 65.3403 79.7908 66.266 81.13 66.6822L81.1843 67.0286Z" fill="#7AB82D"/>
<path d="M81.1251 66.6772C79.2583 66.7081 79.0747 65.6972 78.8343 63.8098C78.5757 61.7414 78.3172 59.6963 78.0586 57.6381C80.3674 56.8368 82.1954 58.3002 81.9034 60.7745C81.6783 62.7473 81.3863 64.7095 81.1251 66.6772Z" fill="#A0D41C"/>
<path d="M89.5062 76.1906C89.5891 77.0257 89.0642 77.4834 88.3248 77.6798C87.9887 77.7714 87.6307 77.7332 87.3216 77.5727C87.0127 77.4122 86.7754 77.1412 86.657 76.8138C86.2496 75.7556 85.4862 74.8725 84.4982 74.3162C83.769 73.9076 83.5907 73.1966 83.9215 72.39C84.2526 71.5832 84.9222 71.4255 85.6746 71.5419C87.1456 71.7695 89.5012 74.6265 89.5062 76.1906Z" fill="#F79B8C"/>
<path d="M73.0192 33.3208C72.9752 32.1987 72.6261 31.1309 72.4375 30.0374C73.6461 30.3507 74.9225 30.2784 76.0881 29.8305C76.3079 29.7502 76.5716 29.5564 76.6933 29.9726C76.9517 30.8775 77.611 31.5654 78.0608 32.3695C78.3325 32.858 77.9807 33.2252 77.7843 33.595C77.4455 34.2336 77.2672 34.9627 76.7035 35.4798L74.4904 40.0794L73.0192 33.3208Z" fill="#5B9F06"/>
<path d="M76.707 35.4737C76.9837 34.3594 77.7412 33.4571 78.0645 32.3711C78.9357 32.7021 79.5795 33.4053 80.469 33.7491C81.8057 34.2662 83.1243 34.0621 84.4636 33.9172C83.9775 35.0342 83.5846 36.1924 82.9303 37.2319C82.8484 37.1296 82.7361 37.0562 82.6097 37.0223C82.4832 36.9883 82.3492 36.9957 82.2271 37.0431C80.0863 37.5784 78.3257 36.7821 76.707 35.4737Z" fill="#A0D41C"/>
<path d="M49.9285 32.3633C50.6189 33.4879 51.3143 34.61 51.9969 35.7424C52.1521 36.001 52.2943 36.2595 52.6407 36.2595C51.1437 37.1361 49.6442 38.0099 48.1523 38.8968C47.7619 39.1295 47.5007 39.1553 47.2138 38.7002C46.6113 37.7489 45.9494 36.8362 45.2979 35.9184C45.0394 35.5538 44.9593 35.3495 45.4634 35.065C46.9784 34.1988 48.4418 33.2655 49.9285 32.3633Z" fill="#FBBB04"/>
</g>
</g>
<defs>
<clipPath id="clip0_504_3529">
<rect width="99.5326" height="99.3456" fill="white"/>
</clipPath>
<clipPath id="clip1_504_3529">
<rect width="99.5326" height="99.3456" fill="white"/>
</clipPath>
</defs>
</svg>
