<svg width="100" height="100" viewBox="0 0 100 100" fill="none" xmlns="http://www.w3.org/2000/svg">
<g clip-path="url(#clip0_504_3121)">
<g clip-path="url(#clip1_504_3121)">
<path d="M39.7296 97.4713C38.8815 97.0498 37.9197 96.9284 37.0768 96.4784C35.7842 95.7985 34.8041 94.7591 33.7854 93.7895C32.1875 92.2692 30.4011 91.4626 28.1852 91.6514C27.5699 91.703 26.9494 91.6514 26.3289 91.6514C26.2604 91.613 26.2014 91.5594 26.1566 91.495C26.1117 91.4304 26.0822 91.3567 26.0704 91.2791C25.9695 89.8129 25.8298 88.3445 26.1608 86.8836C26.213 86.8056 26.2823 86.7402 26.3632 86.6929C26.4443 86.6453 26.5351 86.6168 26.6288 86.6096C29.1961 86.3795 31.6343 86.4907 33.6692 88.4634C34.9618 89.707 36.2004 91.0489 37.943 91.716C38.9256 92.1117 39.9734 92.3204 41.0326 92.3313C49.5511 92.3313 58.0686 92.3313 66.5852 92.3313C67.5879 92.3697 68.5707 92.0437 69.3517 91.4135C69.6232 91.1912 69.9051 90.8679 70.3368 91.111C70.6764 91.6376 70.8919 92.2347 70.967 92.8568C71.0423 93.4788 70.9752 94.11 70.7707 94.7024C70.5662 95.2948 70.2299 95.833 69.7869 96.2764C69.3441 96.7198 68.8063 97.0568 68.2141 97.2619C68.1087 97.3151 68.01 97.3801 67.9193 97.4558L39.7296 97.4713Z" fill="#FEBDAA"/>
<path d="M70.3399 91.1183C70.2778 91.1183 70.1926 91.1183 70.1589 91.1466C68.7137 92.7394 66.8184 92.6282 64.9027 92.6205C56.8875 92.5894 48.8725 92.6205 40.8393 92.5997C38.7011 92.5997 36.8758 91.7749 35.3012 90.3375C34.3419 89.4608 33.3698 88.5948 32.3563 87.783C31.5082 87.1029 30.4637 86.8675 29.3985 86.8237C28.3643 86.7824 27.3456 86.8237 26.3217 86.8237C25.9288 86.5004 25.9804 86.0479 25.9804 85.6162C25.9701 78.9577 25.9701 72.2993 25.9804 65.6406C25.9804 65.2141 25.9288 64.7538 26.3217 64.4306C27.873 64.41 29.4501 64.5288 30.9756 64.3324C32.8428 64.0776 34.5763 63.2217 35.914 61.8942C37.8504 60.0171 39.9499 58.2745 41.4236 55.9682C42.7655 53.8611 43.492 51.5444 43.8438 49.0883C44.0454 47.7256 44.0221 46.3062 44.878 45.0885C46.1008 43.3536 48.239 42.503 50.1782 43.1002C52.4507 43.7906 53.7488 45.4271 53.7203 47.7541C53.7022 49.1735 53.803 50.5981 53.7849 52.0149C53.7387 54.8331 53.2447 57.6258 52.3215 60.2885C52.02 61.1694 51.7285 62.0544 51.4476 62.9439C51.0649 64.1488 51.2512 64.4125 52.4818 64.4125C57.8959 64.4125 63.3126 64.4461 68.7265 64.3995C71.1027 64.379 73.4761 66.1526 73.1478 68.8932C72.7549 69.232 72.2739 69.1724 71.8136 69.1749C68.8327 69.1749 65.849 69.1749 62.8678 69.1749C61.3812 69.1749 60.6727 69.674 60.6417 70.7109C60.6106 71.7476 61.3889 72.3293 62.8911 72.3371C64.6621 72.3371 66.4332 72.3371 68.2044 72.3371C68.6283 72.3371 69.0859 72.2672 69.4324 72.6266C70.57 73.1076 71.7595 73.5418 72.3462 74.7571C72.8298 75.737 73.2202 76.7351 72.7781 77.8597C72.3748 77.4538 71.8707 77.3789 71.3225 77.3814C68.5224 77.3814 65.7196 77.3814 62.9195 77.3814C61.4665 77.3814 60.6287 78.0019 60.6159 79.0154C60.6029 80.029 61.4561 80.7244 62.8731 80.7271C64.7372 80.7271 66.6065 80.8692 68.4655 80.603C68.861 80.5461 69.2799 80.5073 69.6082 80.8383C69.4194 81.1148 69.0783 80.9365 68.8041 81.1148C69.8383 81.5363 70.7794 82.0431 71.2759 83.0773C71.7309 84.0288 72.1058 85.0035 71.6638 86.0765C71.2629 85.6731 70.7691 85.5827 70.2185 85.5852C67.832 85.5982 65.4431 85.5852 63.0566 85.5852C62.5589 85.5621 62.0626 85.6504 61.6035 85.8438C61.3111 85.9566 61.0602 86.1562 60.885 86.4162C60.7098 86.676 60.6186 86.9834 60.6236 87.2968C60.6215 87.6266 60.7271 87.9481 60.9246 88.2124C61.1219 88.4765 61.4004 88.669 61.7172 88.7602C62.1608 88.9055 62.6265 88.9711 63.0927 88.9542C64.2717 88.9542 65.4481 88.9542 66.6271 88.9542C67.0202 88.9542 67.4441 88.8946 67.7596 89.2385C68.7938 89.6368 69.7272 90.1539 70.3399 91.1183Z" fill="#FECCBE"/>
<path d="M26.3207 64.4268C26.3087 70.8957 26.2974 77.3656 26.2869 83.8363C26.2869 84.8317 26.3077 85.8245 26.3207 86.8199C26.3207 88.4281 26.3207 90.0362 26.3207 91.6444C26.1732 93.9429 25.5812 94.4886 23.2697 94.4886H13.5844C12.4287 94.1447 11.9788 93.3251 11.9788 92.1615C11.9788 82.8865 11.9788 73.6114 11.9788 64.3364C11.9526 63.6644 12.189 63.0088 12.6381 62.5084C11.4876 62.405 10.4766 62.4851 9.46831 62.4488C9.01066 62.4333 8.52201 62.5264 8.14453 62.1516C8.43669 61.8931 8.79348 61.9783 9.12702 61.9783C13.9188 61.9783 18.7115 61.9903 23.5051 62.0146C25.3408 62.0326 26.0648 62.6661 26.3207 64.4268Z" fill="#DB620A"/>
<path d="M52.797 5.94922C53.6915 7.72029 54.6068 9.48359 55.4704 11.2676C55.6181 11.61 55.8556 11.9061 56.1579 12.1246C56.46 12.3431 56.8157 12.4758 57.1873 12.5086C60.2278 12.9301 63.2658 13.3722 66.3038 13.8014C67.1259 13.9177 67.9352 14.0806 68.2117 15.0218C68.4704 15.9163 67.9067 16.4774 67.3302 17.0255C65.1454 19.1172 62.9683 21.2037 60.7759 23.2721C60.1476 23.8641 59.9874 24.5312 60.1449 25.3768C60.7008 28.332 61.2102 31.2949 61.7247 34.258C61.8514 34.9844 61.8437 35.6903 61.1483 36.1894C60.4527 36.6882 59.8063 36.4919 59.1392 36.1479C56.6003 34.8372 54.0251 33.5909 51.5302 32.2025C50.2709 31.5017 49.2031 31.4734 47.9751 32.2284C46.8968 32.8927 45.7101 33.3815 44.57 33.9502C44.2287 33.5728 44.3371 33.1333 44.4148 32.7119C44.9319 29.9323 45.3403 27.1375 45.9014 24.3684C46.0747 23.5125 45.9014 22.8171 45.2757 22.256C43.4659 20.6814 41.8706 18.8948 40.0736 17.3229C39.373 16.7075 38.6595 16.0999 38.1449 15.3139C37.5838 14.4297 37.7338 13.7057 38.5896 13.0852C39.8022 12.8991 41.0122 12.6896 42.2301 12.5397C42.7497 12.4815 43.2389 12.2648 43.6314 11.9192C45.4206 11.6942 47.2046 11.4253 48.986 11.159C49.3576 11.1183 49.7109 10.9761 50.0074 10.7481C50.3037 10.5201 50.5319 10.2151 50.6665 9.86625C51.1293 8.84757 51.6594 7.85989 52.1635 6.85932C52.3213 6.53353 52.4427 6.16122 52.797 5.94922Z" fill="#FDC957"/>
<path d="M8.15278 62.1562H13.2307C12.3335 62.888 12.2508 63.7877 12.2508 64.7883C12.2741 73.7393 12.287 82.693 12.2379 91.644C12.2379 92.8876 12.5507 93.8106 13.5823 94.4882C11.938 94.4882 10.291 94.5398 8.64662 94.5035C7.29181 94.4752 6.54718 93.715 6.42824 92.3783C6.41532 92.2232 6.41016 92.068 6.41016 91.913C6.41016 82.843 6.41016 73.7721 6.41016 64.7004C6.42308 63.1026 6.89363 62.4407 8.15278 62.1562Z" fill="#E3530F"/>
<path d="M38.5879 13.082C37.7916 14.2352 37.7969 14.7859 38.8078 15.7606C40.747 17.6351 42.6859 19.5044 44.7155 21.2911C45.9463 22.3769 46.4118 23.4732 46.0367 25.1873C45.4059 28.0728 44.8267 30.9866 44.5708 33.9444C43.0996 34.8702 41.507 35.5631 39.9712 36.3697C39.7089 36.5102 39.4101 36.5674 39.1144 36.5336C38.8188 36.4999 38.5404 36.3769 38.3165 36.1809C38.0631 35.996 37.87 35.7402 37.7619 35.4457C37.6539 35.1511 37.6354 34.8312 37.709 34.5262C38.2261 31.6021 38.7199 28.6727 39.2808 25.7587C39.4954 24.6521 39.3094 23.8067 38.4432 23.0104C36.2714 21.0144 34.1744 18.9382 32.0414 16.9008C31.4777 16.363 31.0072 15.8149 31.3175 14.9565C31.6277 14.0981 32.3051 13.9223 33.0706 13.8112L38.5879 13.082Z" fill="#F3B437"/>
<path d="M13.3831 21.6662L13.9674 21.2861C15.4644 20.769 17.0493 20.7432 18.5955 20.5104C19.3479 20.3914 20.0821 20.1277 20.8579 20.1588C21.349 21.4309 22.3626 21.7722 23.6269 21.8781C25.1342 22.0048 26.6286 22.3073 28.1283 22.5297C28.5833 22.597 28.9635 22.7468 29.1133 23.2459C29.2632 23.7449 29.0125 24.081 28.6868 24.3912C27.4535 25.5702 26.2512 26.7854 24.9687 27.9102C24.6526 28.1582 24.4153 28.4929 24.2863 28.8736C24.1572 29.2543 24.1419 29.6643 24.2422 30.0536C24.5317 31.6049 24.8006 33.1562 25.0748 34.7075C25.173 35.2556 25.3488 35.8321 24.8162 36.2588C24.2835 36.6855 23.7587 36.3777 23.2649 36.1243C21.6877 35.3255 20.1079 34.5317 18.5438 33.7068C18.3351 33.5741 18.097 33.4946 17.8505 33.4752C17.6039 33.4557 17.3564 33.4971 17.1295 33.5956C16.9227 32.8381 17.2743 32.1297 17.3467 31.398C17.3874 30.9021 17.4828 30.4121 17.6311 29.9371C18.2206 28.1712 17.4734 26.9535 16.1031 25.9425C15.1035 25.1501 14.1815 24.2645 13.3495 23.2977C12.7186 22.6125 12.7677 22.2685 13.3831 21.6662Z" fill="#FDC957"/>
<path d="M84.7349 19.7695C84.8591 20.0152 84.9936 20.2505 85.1073 20.5065C85.2188 20.8441 85.4299 21.14 85.7128 21.3554C85.9957 21.5709 86.3371 21.6959 86.6921 21.714C88.2642 21.8845 89.8258 22.1482 91.3901 22.3808C91.7919 22.4175 92.1889 22.4963 92.5743 22.6162C93.3085 22.8929 93.3861 23.6917 92.7087 24.3614C91.4727 25.5869 90.2127 26.7883 88.9286 27.9655C88.3263 28.5164 88.0546 29.0646 88.2434 29.9228C88.6028 31.5569 88.8226 33.2219 89.1226 34.8689C89.213 35.386 89.3217 35.8851 88.8459 36.2366C88.3701 36.5882 87.8402 36.4254 87.354 36.1746C85.8027 35.3782 84.2576 34.5784 82.7183 33.7753C82.3019 33.558 81.8882 33.3434 81.3919 33.4418C81.0351 33.1133 81.1515 32.7048 81.2083 32.3119C81.3764 31.1793 81.6065 30.0572 81.8108 28.9326C81.9045 28.5397 81.8789 28.1278 81.7371 27.7496C81.5952 27.3712 81.3436 27.0441 81.0145 26.8099C79.6778 25.7499 78.5555 24.4623 77.3507 23.2625C76.8672 22.779 76.632 22.2283 77.2551 21.6621C77.5601 21.6286 77.7722 21.4037 78.0048 21.2562C79.6207 20.7987 81.2962 20.7081 82.9432 20.4496C83.592 20.3939 84.2126 20.1586 84.7349 19.7695Z" fill="#FDC957"/>
<path d="M13.3832 21.6719C12.9126 22.2951 13.1065 22.7992 13.6418 23.288C14.8906 24.4514 16.1006 25.6562 17.3675 26.799C17.9285 27.3161 18.1922 27.859 18.0785 28.6088C17.8548 30.2899 17.5433 31.9582 17.1451 33.6067C15.387 34.527 13.6443 35.4761 11.8655 36.3525C10.9166 36.8205 10.1798 36.2258 10.353 35.1761C10.6477 33.3731 10.9649 31.5736 11.3045 29.7775C11.3776 29.5087 11.3735 29.2247 11.2926 28.9581C11.2116 28.6913 11.0571 28.453 10.8468 28.2702C9.57215 27.0835 8.32337 25.8708 7.0668 24.666C6.6402 24.2574 6.13344 23.8567 6.38941 23.1663C6.62209 22.5433 7.22193 22.489 7.7804 22.4141L13.3832 21.6719Z" fill="#F3B437"/>
<path d="M77.258 21.6719C76.9452 22.3337 77.1443 22.8173 77.682 23.2983C78.9515 24.4332 80.0245 25.7751 81.3923 26.8093C82.1678 27.3936 82.1937 28.1874 82.0541 29.0743C81.824 30.5325 81.3535 31.9545 81.3948 33.4515C79.5591 34.4184 77.7285 35.3907 75.8877 36.3448C75.4921 36.5489 75.0551 36.6162 74.6725 36.2799C74.5114 36.1321 74.3946 35.9423 74.3349 35.7318C74.2749 35.5215 74.2747 35.2987 74.3337 35.0882C74.6492 33.3223 74.9077 31.5459 75.2853 29.7955C75.3679 29.4988 75.3603 29.1843 75.2637 28.8921C75.1671 28.5997 74.9855 28.3426 74.7423 28.1538C73.4495 26.9438 72.1826 25.713 70.8976 24.4953C70.5176 24.1334 70.2409 23.735 70.3805 23.1871C70.5124 22.688 70.9519 22.5328 71.3811 22.4709C73.341 22.1865 75.3008 21.9356 77.258 21.6719Z" fill="#F3B437"/>
<path d="M52.8023 5.93761C52.1765 7.58975 51.3001 9.12555 50.4935 10.6898C50.0953 11.4654 49.2006 11.3465 48.5077 11.4861C47.1555 11.7576 45.7749 11.905 44.4045 12.086C44.146 12.1221 43.8383 12.1764 43.6289 11.8972L47.7657 3.77096C47.9493 3.41157 48.1173 3.04184 48.3294 2.70055C49.0559 1.51122 50.5167 1.49054 51.1864 2.70055C51.7733 3.76062 52.2671 4.86721 52.8023 5.93761Z" fill="#F3B437"/>
<path d="M69.6114 80.8467C67.3259 81.0846 65.0326 81.0277 62.7418 81.025C61.9661 81.025 61.2318 80.8777 60.7405 80.2495C60.2855 79.6573 60.0942 78.9774 60.4821 78.2482C60.6313 77.9203 60.8707 77.6412 61.1725 77.4441C61.474 77.2468 61.8256 77.1393 62.1859 77.1338C65.547 77.1055 68.8927 77.1338 72.2487 77.1133C72.8304 77.1133 72.7864 77.4907 72.7916 77.8683C72.3469 79.5152 71.2817 80.5029 69.6114 80.8467Z" fill="#FEBDAA"/>
<path d="M69.4335 72.6367C67.0393 72.6367 64.6426 72.6367 62.2484 72.6212C61.2142 72.6212 60.5653 72.0548 60.33 71.0699C60.1567 70.3382 60.6092 69.4642 61.3279 69.0478C61.6393 68.906 61.9841 68.854 62.3235 68.898C65.931 68.898 69.5396 68.898 73.1488 68.898C73.0945 70.8681 71.5382 72.4349 69.4335 72.6367Z" fill="#FEBDAA"/>
<path d="M67.7609 89.2585L62.7346 89.2429C62.1401 89.2429 61.5454 89.1731 61.0671 88.806C60.4646 88.3432 60.1336 87.7097 60.3301 86.9314C60.4209 86.4818 60.666 86.0779 61.0228 85.7895C61.3797 85.5012 61.826 85.3463 62.2848 85.3518C65.2322 85.2897 68.1823 85.331 71.1299 85.3182C71.7141 85.3182 71.647 85.7111 71.6676 86.081C71.1454 88.0976 69.7026 88.9845 67.7609 89.2585Z" fill="#FEBDAA"/>
<path d="M20.863 20.1457C20.1028 20.7224 19.1747 20.6628 18.306 20.7715C16.8658 20.9681 15.4438 21.3455 13.9727 21.2886C14.8569 19.5442 15.742 17.7999 16.628 16.0556C16.8684 15.5824 17.1089 15.0938 17.7604 15.0938C18.412 15.0938 18.6628 15.5669 18.8903 16.053C19.5366 17.4207 20.3537 18.7109 20.863 20.1457Z" fill="#F3B437"/>
<path d="M84.7352 19.7696C84.7559 20.0773 84.6706 20.3565 84.3448 20.4211C82.2506 20.8298 80.1536 21.246 78.0078 21.264C78.8971 19.4981 79.7815 17.7297 80.676 15.9663C80.9009 15.5216 81.1362 15.0924 81.7542 15.0899C82.372 15.0873 82.6202 15.4958 82.8453 15.9482C83.4786 17.2177 84.1044 18.495 84.7352 19.7696Z" fill="#F3B437"/>
</g>
</g>
<defs>
<clipPath id="clip0_504_3121">
<rect width="99.5326" height="99.3456" fill="white"/>
</clipPath>
<clipPath id="clip1_504_3121">
<rect width="99.5326" height="99.3456" fill="white"/>
</clipPath>
</defs>
</svg>
