<svg width="100" height="100" viewBox="0 0 100 100" fill="none" xmlns="http://www.w3.org/2000/svg">
<g clip-path="url(#clip0_504_3120)">
<g clip-path="url(#clip1_504_3120)">
<path d="M4.4395 96.9792C2.82874 96.245 2.37109 94.9704 2.37109 93.2511C2.4254 83.2967 2.39696 73.3426 2.39696 63.3909C2.39696 61.0381 3.43116 59.9961 5.75812 59.9961H19.8983C22.0391 59.9961 23.1094 61.0846 23.1172 63.2436C23.1172 63.89 23.1354 64.5363 23.1457 65.1826C23.4301 65.5189 23.4041 65.9273 23.4041 66.3255C23.4041 75.2249 23.4301 84.1241 23.4041 93.0209C23.3292 93.6801 23.4457 94.3576 23.2336 95.0092C22.887 96.0743 22.2277 96.7904 21.0823 96.9767L4.4395 96.9792Z" fill="#FEEBE3"/>
<path d="M97.0866 72.2033C96.4713 74.5639 94.7856 75.986 92.8646 77.3097C86.4343 81.7387 80.0586 86.2426 73.6645 90.7208C71.2488 92.4521 68.3393 93.3588 65.3676 93.3063C60.163 93.2494 54.9585 93.2777 49.7539 93.27C49.6578 93.1704 49.5831 93.0525 49.5342 92.9231C49.4853 92.7938 49.4632 92.6559 49.4694 92.5177C49.4461 90.4984 49.4126 88.4791 49.4875 86.4625C49.4979 86.3092 49.5393 86.1596 49.6089 86.0228C49.989 85.5057 50.5502 85.6376 51.0568 85.6376C55.5557 85.6376 60.0544 85.6376 64.5558 85.6376C71.1722 85.6376 76.3457 80.5442 76.4802 73.9176C76.4802 73.5194 76.4491 73.1083 76.7388 72.7747C78.228 71.6992 79.7095 70.6159 81.2065 69.5532C83.0603 68.2397 84.9271 66.9496 86.7834 65.644C90.6823 62.8982 95.975 65.0467 96.9161 69.4265C96.9316 69.5016 97.0247 69.5634 97.0816 69.6308L97.0866 72.2033Z" fill="#FEEBE3"/>
<path d="M49.7452 85.8872C49.7452 88.3452 49.7452 90.8033 49.7452 93.2611L23.1379 93.2844C23.1379 88.8891 23.1094 84.4731 23.1094 80.0673C23.1094 75.1065 23.1189 70.1458 23.1379 65.1851C24.9013 64.2673 26.6387 63.3055 28.5674 62.7521C35.2897 60.8312 41.4666 61.9765 47.1572 66.0022C47.9562 66.5658 48.5768 67.5017 49.7427 67.4165C49.8504 67.5477 49.9305 67.6994 49.9781 67.8626C50.0256 68.0256 50.0396 68.1967 50.0194 68.3653C50.0194 72.0857 50.0375 75.8063 50.0194 79.527C50.019 79.7113 49.9938 79.8948 49.9445 80.0724C49.9121 80.1797 49.8593 80.2798 49.7893 80.3671C49.4455 80.6258 49.0343 80.5895 48.6387 80.5947C47.5631 80.6077 46.4876 80.5662 45.4146 80.6102C43.8633 80.6749 42.7697 81.7581 42.8008 83.1544C42.8316 84.5505 43.9021 85.5511 45.4068 85.6132C46.4205 85.6546 47.4339 85.6132 48.4473 85.626C48.843 85.626 49.2489 85.5822 49.6238 85.7735L49.7452 85.8872Z" fill="#FEEBE3"/>
<path d="M49.7461 80.3377C49.7461 76.0284 49.7461 71.7193 49.7461 67.4102C54.9482 67.4102 60.1527 67.3223 65.3523 67.4102C69.4167 67.4825 72.3616 72.3225 70.8077 76.1258C70.7171 76.3482 70.3913 76.5447 70.6345 76.855C70.6836 77.1988 70.469 77.4342 70.2879 77.6771C68.8971 79.5517 67.038 80.5756 64.7007 80.5936C60.1192 80.6272 55.5403 80.6066 50.9588 80.5936C50.5476 80.6092 50.0977 80.679 49.7461 80.3377Z" fill="#FEEBE3"/>
<path d="M49.7463 80.3385C54.7002 80.3385 59.6566 80.3385 64.6105 80.3385C66.8392 80.3385 68.649 79.4543 69.9779 77.6316C70.177 77.3601 70.4226 77.1145 70.645 76.8713C72.4928 75.5992 74.3388 74.3264 76.1831 73.0525C76.3389 72.9037 76.5333 72.8015 76.7443 72.7578C76.9098 75.7442 76.2272 78.5028 74.4172 80.9152C72.46 83.5316 69.8952 85.1838 66.6271 85.7242C65.7161 85.853 64.796 85.9065 63.8761 85.8844C59.1636 85.8844 54.4503 85.8844 49.736 85.8844C49.5537 85.6747 49.4551 85.405 49.4594 85.1269C49.425 83.7825 49.425 82.4388 49.4594 81.096C49.4551 80.8182 49.5537 80.5483 49.736 80.3385H49.7463Z" fill="#E5A478"/>
<path d="M49.7441 80.336V85.8844C48.3609 85.8844 46.9778 85.8844 45.6073 85.8844C44.5731 85.8844 43.6761 85.5846 43.0684 84.6977C42.3497 83.6454 42.3547 82.5749 43.0684 81.5174C43.315 81.1459 43.6518 80.8428 44.0477 80.6371C44.4433 80.4312 44.8849 80.3294 45.3308 80.3412C46.7942 80.3152 48.2704 80.336 49.7441 80.336Z" fill="#E5A478"/>
<path d="M44.5583 48.6321C57.3384 48.6321 67.6987 38.2719 67.6987 25.4918C67.6987 12.7118 57.3384 2.35156 44.5583 2.35156C31.7782 2.35156 21.418 12.7118 21.418 25.4918C21.418 38.2719 31.7782 48.6321 44.5583 48.6321Z" fill="#FFBA7E"/>
<path d="M44.7966 41.9171C53.7968 41.9171 61.0929 34.621 61.0929 25.6208C61.0929 16.6204 53.7968 9.32422 44.7966 9.32422C35.7963 9.32422 28.5 16.6204 28.5 25.6208C28.5 34.621 35.7963 41.9171 44.7966 41.9171Z" fill="#6864F7"/>
<path d="M38.6489 13.5781H52.3187V13.6117C51.5136 15.0217 51.0551 15.7767 50.9432 15.8766H47.3079C47.8363 16.5966 48.1904 17.4295 48.3421 18.3096H52.2358C52.2806 18.3199 52.3031 18.3423 52.3031 18.3768C51.431 19.854 50.9837 20.5977 50.9612 20.608H48.4403C48.3852 21.358 48.0662 22.275 47.4837 23.359C46.6891 24.4433 45.9392 25.1482 45.2343 25.474C44.08 26.1438 42.7757 26.5129 41.4413 26.547V26.5806C41.4413 26.6805 41.7378 27.1227 42.3307 27.907L49.0764 37.1528V37.5897C49.0777 37.5988 49.0767 37.6082 49.0738 37.6169C49.0709 37.6256 49.0661 37.6336 49.0595 37.6402C49.0531 37.6466 49.0451 37.6516 49.0364 37.6545C49.0276 37.6574 49.0183 37.6582 49.0092 37.6569H46.0333C40.6898 30.5985 38.0181 27.0529 38.0181 27.0201V24.8715L38.0517 24.7889C38.601 24.8727 39.1562 24.9115 39.7117 24.9053C42.6988 24.9053 44.5612 23.8038 45.2989 21.6009C45.4099 21.2825 45.4667 20.9478 45.4669 20.6107H37.3408C37.2959 20.6107 37.2734 20.5832 37.2734 20.5279C38.1681 19.0508 38.6266 18.3122 38.6489 18.3122H45.1128V18.2786C44.7319 17.4288 44.0157 16.7686 42.9643 16.2981C42.3113 16.04 41.6183 15.8983 40.9164 15.8792H37.2967V15.7965C38.1759 14.3176 38.6266 13.5781 38.6489 13.5781Z" fill="white"/>
<path d="M48.8368 2.46565C57.9869 3.19478 66.2087 6.36202 73.399 12.0476C81.3987 18.3614 86.6859 26.4875 89.2947 36.3332C89.4525 36.9227 89.6851 37.1245 90.2903 37.109C91.7071 37.0674 93.1343 37.145 94.5408 37.0804C95.6682 37.0288 96.5083 37.3985 97.0798 38.3733V39.4824C95.1924 42.0679 93.0308 44.4363 91.0065 46.9131C88.9819 49.39 86.942 51.7869 84.9124 54.2249C83.8032 55.5591 82.6217 55.5669 81.5304 54.2534C77.7281 49.6839 73.9221 45.1162 70.1129 40.5502C69.5286 39.852 69.0787 39.1436 69.5181 38.2233C69.9578 37.3028 70.798 37.0804 71.7548 37.1012C72.926 37.127 74.0972 37.0882 75.2684 37.114C75.8528 37.127 76.1087 37.0674 75.8761 36.359C74.3467 31.5089 71.4463 27.2049 67.5248 23.9668C67.1472 23.5815 67.1577 23.0618 67.1034 22.5886C66.0251 13.1774 58.8117 5.32523 49.8555 3.17151C49.3048 3.03965 48.6816 3.07325 48.2266 2.62855C48.3533 2.2821 48.6042 2.4062 48.8368 2.46565Z" fill="#6864F7"/>
<path d="M48.2461 2.58341L47.729 2.47482C47.6671 2.44723 47.6446 2.41621 47.6619 2.38175C47.6799 2.34554 47.6954 2.32744 47.7162 2.32744C48.0988 2.32744 48.4918 2.22144 48.8461 2.46706L48.2461 2.58341Z" fill="#A9BEF4"/>
<path d="M47.7007 2.32812C47.7007 2.37634 47.7057 2.42542 47.7162 2.47536C47.383 2.50378 47.047 2.54511 46.75 2.33328L47.7007 2.32812Z" fill="#8AA3E3"/>
</g>
</g>
<defs>
<clipPath id="clip0_504_3120">
<rect width="99.5326" height="99.3456" fill="white"/>
</clipPath>
<clipPath id="clip1_504_3120">
<rect width="99.5326" height="99.3456" fill="white"/>
</clipPath>
</defs>
</svg>
