<svg width="100" height="100" viewBox="0 0 100 100" fill="none" xmlns="http://www.w3.org/2000/svg">
<g clip-path="url(#clip0_11_2782)">
<g clip-path="url(#clip1_11_2782)">
<path d="M23.6494 51.6256C15.1922 47.7938 6.04988 44.9213 1.41406 35.7455V29.0231C5.06738 23.6503 7.46674 17.4736 11.7251 12.4681C17.8605 9.73776 23.4969 11.0667 28.8282 14.6244C31.287 16.2687 34.2371 17.0522 36.4607 19.0818C36.9468 20.5116 35.7936 21.1322 34.9663 21.7319C28.7455 26.2488 25.1413 32.3326 23.7941 39.8512C23.709 40.2139 23.5487 40.5548 23.3236 40.8517C20.2806 41.3482 18.9283 39.3677 17.8812 37.0459C17.5295 36.2703 17.5347 35.3421 17.1417 34.5663C16.8185 33.9278 16.4695 32.9789 15.5904 33.3641C14.7113 33.7494 15.0293 34.6156 15.4301 35.2722C17.5502 38.7833 18.8171 42.8943 23.3882 44.5051C25.8084 45.3583 27.1399 47.6438 27.0079 50.4517C26.284 51.9695 25.1516 52.3236 23.6494 51.6256Z" fill="#C08678"/>
<path d="M78.9574 47.667C77.9232 51.0566 77.5045 54.6815 75.1672 57.572C73.391 58.3218 72.0645 57.1739 70.7251 56.4086C64.7242 52.9905 58.8137 49.4148 52.7793 46.0666C51.4684 45.3374 50.1938 44.5746 49.7851 42.964C49.1466 35.0239 49.5267 27.0786 49.5655 19.1385C49.5655 17.9 49.7929 16.6357 51.0935 15.9531L57.1798 16.4702C58.2734 17.2226 58.201 18.4223 58.3613 19.5289C59.6541 22.6755 60.8977 23.3374 63.8633 22.4144C65.4559 21.9178 66.8677 20.6432 68.7318 21.2818C75.6971 26.5382 79.2496 33.6226 79.9555 42.2245C80.0227 44.1119 80.1208 46.02 78.9574 47.667Z" fill="#6864F7"/>
<path d="M50.7091 43.8895L75.1707 57.5695C74.4182 59.8292 72.6342 61.3805 71.2923 63.2291C69.8316 63.6222 68.9654 62.0632 67.6029 62.1175C64.5985 62.2415 63.1789 63.9868 62.7938 66.7947C62.6102 68.1209 62.7938 69.5637 61.5838 70.5694C53.4033 73.9307 45.3726 73.2816 37.4455 69.6982C35.8657 68.8579 34.3557 67.9296 33.4948 66.2621C31.2273 63.3766 27.7654 61.4374 26.6562 57.6341C26.6962 57.3893 26.7855 57.1549 26.9188 56.9455C27.0523 56.7361 27.2267 56.5561 27.4318 56.4164C34.6014 52.0211 41.8305 47.711 49.282 43.7939C49.5088 43.6891 49.7584 43.6429 50.0077 43.6596C50.257 43.6763 50.4982 43.7554 50.7091 43.8895Z" fill="#BC9AF4"/>
<path d="M50.7047 43.8949L26.6594 57.6395C24.8263 56.0519 24.5291 53.694 23.6577 51.6256C24.8549 51.3489 26.1683 51.2946 26.8276 49.9811C28.4979 45.7719 25.7158 43.37 23.1328 40.8906C23.3216 32.9789 27.1842 27.009 33.0844 22.13C34.2118 21.1992 35.4115 20.3461 36.5672 19.4566C37.211 18.1096 38.4132 17.8252 39.7422 17.7761C43.5144 17.0729 47.1574 15.55 51.1029 15.9482C50.1696 25.2534 50.9038 34.5793 50.7047 43.8949Z" fill="#D2DCFD"/>
<path d="M68.4288 61.3594C69.7059 61.4834 70.28 62.6858 71.2857 63.2287C72.6533 70.2754 72.6734 77.5176 71.3451 84.5721C70.5695 88.8692 67.4669 91.9821 63.2267 92.9491C56.8276 94.4098 50.2706 94.1642 43.7656 93.2542C36.3582 87.8039 33.4674 76.95 37.1958 68.591C45.1953 72.3735 53.376 72.676 61.7167 69.8579C63.3612 71.898 62.7509 73.7362 61.1996 75.4761C60.3257 76.4587 59.1908 77.2861 59.5191 78.9408C62.363 75.983 65.7526 73.457 65.3752 68.4824C65.1684 65.7546 64.7004 62.5641 68.4288 61.3594Z" fill="#E1A670"/>
<path d="M57.3993 20.0712L57.1797 16.4515C62.1386 12.7232 67.695 10.0084 73.0573 6.95234C79.534 3.26024 86.2433 6.08879 89.8423 11.5028C92.6451 15.7069 95.0005 20.2134 97.5524 24.5856C96.7223 25.5472 97.1515 26.7289 97.0093 27.8071C96.4716 31.8405 94.6126 35.0646 91.1867 37.3063C88.49 39.0695 85.6306 40.5664 82.8227 42.1437C81.5428 42.8625 80.0872 43.6951 79.0402 41.7171C78.2128 33.6064 74.4173 27.0805 68.3929 21.7414C68.561 18.6388 70.7638 18.8172 72.8943 19.0344C74.4326 19.1921 75.9504 20.1721 77.5277 19.0551C75.0817 17.3616 69.4091 17.2091 66.6685 18.6C63.7623 20.0815 60.9131 22.2715 57.3993 20.0712Z" fill="#FEEBE3"/>
<path d="M79.0475 41.7123C79.5025 41.9009 79.9938 42.3095 80.4075 42.2294C86.8867 41.1744 94.8528 33.2213 96.1171 26.5611C96.2954 25.62 96.7091 24.9632 97.5623 24.5703C99.548 31.789 97.7743 36.7221 91.5716 40.4945C87.4348 43.0077 83.174 45.2724 78.9648 47.6486L79.0475 41.7123Z" fill="#FEDECF"/>
<path d="M39.7328 17.7726C38.8361 18.5959 37.7428 19.1746 36.5578 19.4532C33.6878 18.6025 31.1153 17.1262 28.5944 15.5749C23.8293 12.6274 18.9634 10.4039 13.2779 13.023C12.5953 13.3359 12.1015 13.0489 11.7266 12.4646C15.8375 8.54234 21.2231 7.32198 25.9934 9.77562C30.6989 12.1957 35.1615 15.0862 39.7328 17.7726Z" fill="#B56F5A"/>
<path d="M37.1995 68.5977C37.1995 72.1889 37.352 75.7906 37.1632 79.374C36.8815 84.6614 38.7145 88.7775 43.2004 91.676C43.7641 92.0404 44.7104 92.3275 43.7718 93.2608C38.1974 92.6326 33.6366 87.702 33.4556 81.7449C33.3004 76.5894 33.4686 71.4262 33.4944 66.2656L37.1995 68.5977Z" fill="#D5985D"/>
<path d="M23.1253 40.8807C28.591 43.5438 29.6563 46.1629 26.8199 49.9714C25.6176 46.7551 23.1821 44.8262 20.0976 43.5956C18.2205 42.8457 17.1476 41.4962 16.6873 39.5259C16.4107 38.3392 16.0099 37.1835 15.0429 36.263C14.2259 35.4873 12.778 34.7117 14.0268 33.2406C14.5439 32.6253 14.7456 31.3557 15.8031 31.6066C16.4751 31.7859 17.0726 32.1744 17.5091 32.7159C17.9456 33.2575 18.1984 33.924 18.2309 34.6186C18.3291 38.0392 20.4466 39.6191 23.1253 40.8807Z" fill="#B46E59"/>
<path d="M57.3984 20.0679C58.9913 19.9929 61.0026 20.5127 62.1016 19.7369C66.546 16.5956 71.4095 16.6188 76.4899 16.7093C78.4471 16.7429 78.9176 17.9426 79.2589 18.982C79.7269 20.4143 77.9946 20.0705 77.2579 20.4997C75.9184 21.2754 74.5922 20.5618 73.3795 20.0652C71.1819 19.1759 69.5737 19.7292 68.4076 21.7432C66.8097 21.5752 65.7444 22.7774 64.4207 23.3075C60.9873 24.6856 58.9187 23.7445 57.3984 20.0679Z" fill="#FEDCCD"/>
<path d="M68.4296 61.3649C65.9294 63.3169 66.0715 66.0732 66.2888 68.7802C66.5292 71.7663 66.0897 74.3829 63.4446 76.278C62.6691 76.834 61.9399 77.6019 61.8442 78.6749C61.6349 81.0018 59.8199 80.808 58.5555 80.3374C56.4586 79.5617 58.1031 78.0104 58.4987 77.0305C58.8761 76.0894 59.9051 75.3473 60.7687 74.6776C62.5139 73.3229 61.578 71.5104 61.7253 69.8815C61.7666 68.5345 61.7253 67.1823 61.865 65.8481C62.2218 62.5284 64.5617 60.9693 68.4296 61.3649Z" fill="#D4985D"/>
</g>
</g>
<defs>
<clipPath id="clip0_11_2782">
<rect width="99.5326" height="99.3456" fill="white" transform="translate(0.136719)"/>
</clipPath>
<clipPath id="clip1_11_2782">
<rect width="99.5326" height="99.3456" fill="white" transform="translate(0.136719)"/>
</clipPath>
</defs>
</svg>
