<svg width="100" height="100" viewBox="0 0 100 100" fill="none" xmlns="http://www.w3.org/2000/svg">
<g clip-path="url(#clip0_504_3531)">
<g clip-path="url(#clip1_504_3531)">
<path d="M5.23902 94.525C4.81017 93.9575 4.58191 93.2636 4.59005 92.5523C4.59005 82.9309 4.59005 73.3101 4.59005 63.6903C4.6021 63.5026 4.62715 63.3161 4.66503 63.1318C5.09939 62.6871 5.66305 62.6147 6.23186 62.6147C10.7048 62.6147 15.1777 62.5398 19.6481 62.651C24.6484 62.5734 29.6514 62.5656 34.6441 62.651C39.298 62.5553 43.9674 62.6097 48.6291 62.6225C48.9601 62.6165 49.2896 62.6708 49.6012 62.7828C49.7789 62.8495 49.9359 62.9618 50.0562 63.1085C50.3147 63.9877 50.1544 64.89 50.1571 65.7794C50.1691 74.5461 50.1691 83.3126 50.1571 92.0792C50.1571 92.9143 50.3044 93.7933 49.6864 94.5147L5.23902 94.525Z" fill="#D2DCFD"/>
<path d="M49.7082 94.524C49.7082 84.6593 49.7082 74.7948 49.7082 64.9303C49.7082 64.3278 49.5738 63.6943 49.99 63.1513C50.4064 62.6084 50.9751 62.6342 51.5413 62.6342C55.9367 62.6342 60.3139 62.5541 64.6989 62.6653C69.7062 62.5877 74.7144 62.5877 79.7234 62.6653C84.2428 62.5566 88.7726 62.6292 93.2843 62.6292C93.8014 62.6292 94.3185 62.655 94.7504 63.0246C94.952 63.3762 94.8744 63.7616 94.8744 64.1312C94.8744 73.6994 94.8744 83.2657 94.8744 92.8305C94.8744 93.5078 94.9107 94.1697 94.166 94.524H49.7082Z" fill="#6864F7"/>
<path d="M71.7777 19.1749C77.5795 21.1399 80.1702 25.1217 79.697 31.3269L79.5652 31.4949C79.1102 31.7819 78.5749 31.7742 78.076 31.8879C72.4991 33.1522 69.7506 38.9981 72.3361 44.094C72.5947 44.6293 73.0445 45.1076 73.0007 45.7695C71.9665 46.6046 70.6245 46.8269 69.554 47.6335C67.9146 48.8337 66.627 50.4515 65.8259 52.3185C65.606 52.8356 65.5234 53.5673 64.6624 53.4872C64.545 53.3684 64.4566 53.2243 64.4038 53.0657C64.2796 52.1299 64.2251 51.1863 64.241 50.2423C64.241 41.8928 64.241 33.5443 64.241 25.1966C64.241 24.8656 64.241 24.5347 64.241 24.2064C64.3106 22.6188 64.4814 22.43 66.0973 22.0992C67.8219 21.5458 69.5179 20.9486 70.7926 19.5498C71.0407 19.2835 71.351 19.0405 71.7777 19.1749Z" fill="#1FBE66"/>
<path d="M19.681 27.9702C20.598 23.4886 23.2431 20.5585 27.6161 19.1795C28.053 19.0114 28.34 19.2958 28.6115 19.5414C30.1164 20.9196 32.0026 21.811 34.0229 22.0985C34.4133 22.2536 34.7986 22.4088 34.9744 22.8431C35.1058 23.1977 35.1681 23.5742 35.158 23.9523C35.158 33.3584 35.2484 42.7646 35.1089 52.168C35.1103 52.4492 35.0835 52.7298 35.0288 53.0057C34.9876 53.1617 34.9137 53.3072 34.8115 53.4322C34.2557 53.7089 33.9996 53.2901 33.8651 52.9151C32.6656 49.554 30.292 47.408 27.0316 46.1386C26.8605 46.0579 26.7214 45.9223 26.6362 45.7533C26.4344 44.9777 26.9154 44.3985 27.2127 43.7755C27.7707 42.6039 28.0523 41.32 28.0354 40.0225C28.0187 38.725 27.7042 37.4486 27.116 36.292C26.5279 35.1351 25.6821 34.1291 24.6437 33.351C23.6052 32.5729 22.4018 32.044 21.1264 31.8045C20.5654 31.6986 19.8596 31.8769 19.5493 31.1452C19.6139 30.093 19.3993 29.0225 19.681 27.9702Z" fill="#FECC00"/>
<path d="M34.6975 53.4561C34.6975 43.1571 34.6975 32.8582 34.6975 22.5592C34.7676 22.3853 34.889 22.2369 35.0456 22.1339C35.2022 22.0308 35.3867 21.9781 35.574 21.9825C37.57 21.83 39.1937 20.8734 40.6778 19.6271C40.9881 19.3687 41.2803 19.0144 41.7716 19.1929C45.311 20.3072 47.8552 22.4919 49.1247 26.0419C49.298 26.528 49.4065 27.0373 49.5462 27.5364C49.7121 27.6957 49.845 27.886 49.9374 28.0967C50.0295 28.3075 50.0794 28.5345 50.0838 28.7644C50.0838 29.6073 50.2494 30.463 49.8642 31.2698C49.5435 31.6963 49.0549 31.6938 48.5921 31.7869C42.3869 32.9012 39.5222 38.8763 42.4696 44.4946C42.6452 44.775 42.7581 45.0897 42.8006 45.4176C42.7695 45.989 42.3351 46.1934 41.8981 46.382C38.7672 47.6748 36.5435 49.8026 35.5121 53.0812C35.4325 53.3548 35.2687 53.5961 35.0441 53.7714C34.7854 53.8205 34.6356 53.7586 34.6975 53.4561Z" fill="#FE9000"/>
<path d="M49.7188 31.2901L49.7473 28.5546C50.0057 28.203 49.5948 27.7195 49.9774 27.3937C50.8694 23.0993 53.6359 20.5629 57.6538 19.1977C58.4293 19.0658 58.8353 19.689 59.3188 20.0741C60.9632 21.385 62.7912 22.0651 64.906 21.9176C65.5293 21.9176 66.1833 21.8039 66.6797 22.3338C64.7174 23.0009 64.7147 23.0009 64.7174 25.3435C64.7174 34.7012 64.726 44.0591 64.7432 53.4168C64.8414 53.7012 64.6889 53.7919 64.4382 53.8047C63.7245 52.9593 63.6031 51.8269 63.0161 50.9116C61.7854 48.9982 60.2263 47.4883 58.1036 46.6171C57.5865 46.4075 57.0022 46.3041 56.6712 45.7742C56.4929 45.089 56.9687 44.6158 57.2401 44.0859C57.782 43.0447 58.1026 41.9026 58.1818 40.7316C58.2609 39.5604 58.097 38.3857 57.7002 37.2811C57.3034 36.1764 56.6824 35.1657 55.876 34.3128C55.0698 33.4598 54.096 32.7828 53.0154 32.3243C52.0458 31.9081 51.0038 31.8485 50.0007 31.5901C49.9357 31.5619 49.8771 31.521 49.8286 31.4694C49.7801 31.4178 49.7428 31.3566 49.7188 31.2901Z" fill="#54E260"/>
<path d="M19.6741 63.0676L4.67818 63.127C4.66523 61.0148 4.74797 58.8946 4.62129 56.7901C4.45566 54.3082 5.16464 51.8466 6.62506 49.8331C8.08548 47.8197 10.2051 46.3813 12.6157 45.7679C13.0966 45.6723 13.4094 45.9775 13.7171 46.254C15.1133 47.504 16.8543 48.3032 18.7123 48.5475C19.2294 48.6224 19.7465 48.7128 19.9636 49.2842C20.3309 50.9545 20.1136 52.6455 20.1421 54.3285C20.1809 56.578 20.1627 58.8274 20.1421 61.0769C20.1447 61.7697 20.2145 62.4962 19.6741 63.0676Z" fill="#7DD4F3"/>
<path d="M94.6779 53.5603C94.6779 56.744 94.6779 59.9275 94.6779 63.1112L79.7285 63.0724C79.2993 62.6277 79.2605 62.0588 79.258 61.49C79.2425 57.8703 79.232 54.2506 79.258 50.6129C79.2277 50.0927 79.3451 49.5746 79.5966 49.1184C79.7058 48.9659 79.8483 48.8402 80.013 48.7505C80.1777 48.6611 80.3607 48.6099 80.5481 48.6013C82.6165 48.4333 84.2816 47.4585 85.8018 46.145C86.0837 45.9019 86.3785 45.6487 86.8024 45.7624C90.934 46.8509 93.3412 49.6666 94.6779 53.5603Z" fill="#CF1273"/>
<path d="M19.6996 49.0188C16.8556 48.9697 14.5674 47.7259 12.6128 45.761C11.6484 43.9822 10.896 42.206 10.8314 40.0728C10.7228 36.4351 13.36 32.2802 18.0915 31.4554C19.2446 31.2538 19.4619 30.8659 19.4204 29.8705C19.3946 29.2422 19.1619 28.5468 19.679 27.9727L19.7178 31.3106C20.0203 31.7367 20.1705 32.2521 20.1443 32.774C20.1573 37.8053 20.1856 42.8369 20.1288 47.8682C20.1187 48.1031 20.0762 48.3354 20.0021 48.5585C19.9417 48.7351 19.8377 48.8934 19.6996 49.0188Z" fill="#FEE3C0"/>
<path d="M86.8114 45.7676C84.8955 47.6291 82.765 49.0072 79.9829 49.0124C79.8894 49.0186 79.7963 48.9975 79.7146 48.9515C79.6329 48.9055 79.5661 48.837 79.5229 48.7538C79.2099 48.136 79.2642 47.4611 79.2642 46.8095C79.2557 42.3745 79.2557 37.9387 79.2642 33.5019C79.2642 32.7521 79.1918 31.9791 79.7192 31.3353C86.8061 31.1465 91.0955 39.1512 87.1086 45.129C86.9899 45.3322 86.8903 45.546 86.8114 45.7676Z" fill="#FCD0A2"/>
<path d="M66.6789 22.3216H64.7166C64.2383 21.7814 64.2408 21.1143 64.2383 20.455C64.2278 15.8458 64.2278 11.2367 64.2383 6.62764C64.2383 5.97351 64.2098 5.2961 64.7269 4.77125C71.1234 4.64455 75.5395 11.5375 72.7421 17.2955C72.4343 17.9315 72.0956 18.552 71.7725 19.1777C70.3349 20.636 68.6957 21.7839 66.6789 22.3216Z" fill="#FCD0A2"/>
<path d="M33.8167 22.3225C31.8001 22.2734 30.1659 21.3451 28.6742 20.0886C28.3199 19.7886 27.9683 19.4861 27.6167 19.1862C25.9825 16.4973 25.2896 13.6817 26.3757 10.5868C27.5676 7.18431 31.0917 4.70223 34.7087 4.76686C35.1068 5.17278 35.1586 5.68988 35.1611 6.20698C35.1922 11.0652 35.2077 15.9259 35.1456 20.784C35.1353 21.5623 35.262 22.6974 33.8167 22.3225Z" fill="#FEE3C0"/>
<path d="M33.8164 22.3223C34.8506 22.3376 34.6956 21.5906 34.6956 20.9468C34.6956 15.5533 34.7006 10.16 34.7111 4.7666C41.3583 4.66836 45.6451 12.0319 42.3952 17.9527C42.1754 18.356 41.7617 18.6689 41.7772 19.1886C39.7967 21.1096 37.5034 22.3764 34.6956 22.5497L33.8164 22.3223Z" fill="#FCD0A2"/>
<path d="M64.7328 4.77121C64.7328 10.6214 64.7328 16.4723 64.7328 22.3243C62.3283 22.5104 60.3866 21.4917 58.6335 19.9792C58.3182 19.7078 57.9897 19.4621 57.6666 19.1854C56.7436 17.3471 55.8567 15.5373 55.9213 13.3577C56.0197 8.69343 60.0789 4.67555 64.7328 4.77121Z" fill="#FEE3C0"/>
<path d="M49.98 27.3789C50.0238 27.7901 50.0937 28.2063 49.7499 28.5398L49.5508 27.5264L49.98 27.3789Z" fill="#8CE486"/>
<path d="M56.7196 45.768C60.8564 46.9134 63.367 49.6694 64.5486 53.7288C64.8946 54.1237 65.0968 54.6239 65.1226 55.1482C65.2078 57.2632 65.1614 59.3781 65.1562 61.4931C65.1562 62.0593 65.1354 62.628 64.714 63.0805L49.9767 63.1581L49.6819 63.0625C49.5356 62.9071 49.4223 62.7235 49.349 62.5231C49.2756 62.3228 49.2438 62.1096 49.2553 61.8963C49.2553 57.7595 49.1105 53.5994 49.3226 49.4548C49.3575 49.2959 49.4186 49.144 49.5034 49.0051C49.594 48.9017 49.6845 48.7647 49.8214 48.7464C52.3191 48.506 54.4366 47.4305 56.3111 45.8118C56.373 45.7781 56.4409 45.7567 56.511 45.7492C56.581 45.7416 56.652 45.748 56.7196 45.768Z" fill="#FECC00"/>
<path d="M49.7403 48.9837L49.7015 63.0541H34.6823C34.2971 62.6429 34.2506 62.1258 34.2506 61.6062C34.2506 59.4446 34.1601 57.2858 34.3049 55.1243C34.3685 54.6027 34.5893 54.1131 34.9382 53.7202C35.9311 49.8291 38.3433 47.2566 42.1157 45.9069C42.3226 45.8048 42.517 45.6791 42.6947 45.532C43.3075 45.5087 43.5454 46.0491 43.9385 46.3646C45.3734 47.4737 46.9092 48.3451 48.7552 48.5415C49.1198 48.5933 49.518 48.5933 49.7403 48.9837Z" fill="#FEF161"/>
<path d="M34.6795 54.872C34.6795 57.6022 34.6795 60.3334 34.6795 63.0655H19.6836C19.6923 58.3822 19.7016 53.6998 19.7121 49.0183L19.6914 48.9149C19.9838 48.6763 20.3482 48.5433 20.7256 48.5373C22.4459 48.3194 24.055 47.5691 25.3279 46.3915C25.7155 46.0502 26.0413 45.4607 26.7369 45.771C30.734 46.8981 33.1851 49.5742 34.4314 53.4551C34.8088 53.8661 34.5633 54.404 34.6795 54.872Z" fill="#6BA6FE"/>
<path d="M64.7344 63.0721L64.7654 54.8606C65.0239 54.4261 64.5456 53.8572 65.0239 53.4668C66.2909 49.524 68.8041 46.8506 72.8658 45.7543C73.2975 45.5838 73.6105 45.8397 73.8612 46.1034C75.2574 47.5641 76.9871 48.3166 78.965 48.5622C79.2514 48.5954 79.5215 48.7132 79.7406 48.9008C79.8301 48.9297 79.9168 48.967 79.9992 49.012C79.694 49.4775 79.7536 50.0023 79.7536 50.5169C79.7536 54.7018 79.7536 58.8879 79.7536 63.0746L64.7344 63.0721Z" fill="#FE3F5C"/>
<path d="M79.7308 48.9019C76.8866 49.0854 74.7744 47.6401 72.8687 45.7579C71.1133 43.1724 70.3971 40.4084 71.4081 37.3654C72.6051 33.7456 75.8033 31.4626 79.7178 31.3359C79.7178 37.1911 79.722 43.0465 79.7308 48.9019Z" fill="#FEE3C0"/>
<path d="M65.0255 53.4683C65.041 53.9517 65.0746 54.4405 64.7669 54.8619L64.5703 53.7216L64.7513 53.4062C64.841 53.4338 64.9326 53.4546 65.0255 53.4683Z" fill="#63A85F"/>
<path d="M26.7251 45.7666C25.3884 46.7517 24.2302 47.9953 22.5677 48.5046C21.6214 48.7943 20.6854 49.045 19.6875 48.9106C19.6995 43.0416 19.7116 37.1715 19.7236 31.3008C26.7046 31.6161 30.5647 38.4341 27.2578 44.6187C27.0484 44.9911 26.8906 45.3892 26.7251 45.7666Z" fill="#FCD0A2"/>
<path d="M34.6809 54.8766C34.3421 54.4499 34.3784 53.9536 34.4224 53.457H34.7094L34.942 53.739C35.0016 54.1375 34.9083 54.5438 34.6809 54.8766Z" fill="#D6B746"/>
<path d="M49.7372 48.9855C48.3776 48.9917 47.0349 48.6848 45.8131 48.0885C44.5912 47.4922 43.5233 46.6224 42.6916 45.5466C38.4902 39.0209 41.9677 31.9598 49.7192 31.2773V31.36C50.2025 31.9029 50.182 32.5752 50.1845 33.2319C50.1965 37.8444 50.1965 42.4562 50.1845 47.0669C50.1845 47.7262 50.1845 48.396 49.7217 48.9415L49.7372 48.9855Z" fill="#FEE3C0"/>
<path d="M49.7188 48.9422C49.7188 43.0816 49.7188 37.2212 49.7188 31.3607C56.1153 31.2496 60.4977 37.9744 57.8011 43.7712C57.4857 44.4511 57.0926 45.0949 56.7358 45.7567C54.7838 47.6829 52.612 49.1075 49.7188 48.9422Z" fill="#FCD0A2"/>
</g>
</g>
<defs>
<clipPath id="clip0_504_3531">
<rect width="99.5326" height="99.3456" fill="white"/>
</clipPath>
<clipPath id="clip1_504_3531">
<rect width="99.5326" height="99.3456" fill="white"/>
</clipPath>
</defs>
</svg>
